<?xml version="1.0" encoding="UTF-8" standalone="no"?>
<svg
   width="576pt"
   height="576pt"
   viewBox="0 0 576 576"
   version="1.1"
   id="svg115"
   sodipodi:docname="animation-example-2-dark.svg"
   inkscape:version="1.3 (0e150ed6c4, 2023-07-21)"
   xmlns:inkscape="http://www.inkscape.org/namespaces/inkscape"
   xmlns:sodipodi="http://sodipodi.sourceforge.net/DTD/sodipodi-0.dtd"
   xmlns:xlink="http://www.w3.org/1999/xlink"
   xmlns="http://www.w3.org/2000/svg"
   xmlns:svg="http://www.w3.org/2000/svg"
   xmlns:rdf="http://www.w3.org/1999/02/22-rdf-syntax-ns#"
   xmlns:cc="http://creativecommons.org/ns#"
   xmlns:dc="http://purl.org/dc/elements/1.1/">
  <sodipodi:namedview
     id="namedview115"
     pagecolor="#ffffff"
     bordercolor="#000000"
     borderopacity="0.25"
     inkscape:showpageshadow="2"
     inkscape:pageopacity="0.0"
     inkscape:pagecheckerboard="0"
     inkscape:deskcolor="#d1d1d1"
     inkscape:document-units="pt"
     showgrid="false"
     inkscape:zoom="1.4309896"
     inkscape:cx="384"
     inkscape:cy="328.09463"
     inkscape:window-width="2560"
     inkscape:window-height="1334"
     inkscape:window-x="-11"
     inkscape:window-y="-11"
     inkscape:window-maximized="1"
     inkscape:current-layer="svg115" />
  <metadata
     id="metadata1">
    <rdf:RDF>
      <cc:Work>
        <dc:type
           rdf:resource="http://purl.org/dc/dcmitype/StillImage" />
        <dc:date>2024-02-27T22:06:09.478520</dc:date>
        <dc:format>image/svg+xml</dc:format>
        <dc:creator>
          <cc:Agent>
            <dc:title>Matplotlib v3.7.1, https://matplotlib.org/</dc:title>
          </cc:Agent>
        </dc:creator>
      </cc:Work>
    </rdf:RDF>
  </metadata>
  <defs
     id="defs1">
    <style
       type="text/css"
       id="style1">*{stroke-linejoin: round; stroke-linecap: butt}</style>
    <filter
       style="color-interpolation-filters:sRGB;"
       inkscape:label="Invert"
       id="filter116"
       x="0"
       y="0"
       width="1"
       height="1">
      <feColorMatrix
         type="hueRotate"
         values="180"
         result="color1"
         id="feColorMatrix115" />
      <feColorMatrix
         values="-1 0 0 0 1 0 -1 0 0 1 0 0 -1 0 1 -0.21 -0.72 -0.07 2 0 "
         result="color2"
         id="feColorMatrix116" />
    </filter>
  </defs>
  <g
     id="figure_1"
     style="filter:url(#filter116)">
    <g
       id="patch_1">
      <path
         d="M 0 576  L 576 576  L 576 0  L 0 0  z "
         style="fill: #ffffff"
         id="path1" />
    </g>
    <g
       id="axes_1">
      <g
         id="patch_2">
        <path
           d="M 35.45024 172.321635  L 566.63726 172.321635  L 566.63726 18.118365  L 35.45024 18.118365  z "
           style="fill: #ffffff"
           id="path2" />
      </g>
      <g
         id="matplotlib.axis_1">
        <g
           id="xtick_1">
          <g
             id="line2d_1">
            <defs
               id="defs2">
              <path
                 id="m934e15b6ce"
                 d="M 0 0  L 0 3.5  "
                 style="stroke: #000000; stroke-width: 0.8" />
            </defs>
            <g
               id="g2">
              <use
                 xlink:href="#m934e15b6ce"
                 x="35.45024"
                 y="172.321635"
                 style="stroke: #000000; stroke-width: 0.8"
                 id="use2" />
            </g>
          </g>
          <g
             id="text_1">
            <!-- 0 -->
            <g
               transform="translate(32.26899 186.920073) scale(0.1 -0.1)"
               id="g3">
              <defs
                 id="defs3">
                <path
                   id="DejaVuSans-30"
                   d="M 2034 4250  Q 1547 4250 1301 3770  Q 1056 3291 1056 2328  Q 1056 1369 1301 889  Q 1547 409 2034 409  Q 2525 409 2770 889  Q 3016 1369 3016 2328  Q 3016 3291 2770 3770  Q 2525 4250 2034 4250  z M 2034 4750  Q 2819 4750 3233 4129  Q 3647 3509 3647 2328  Q 3647 1150 3233 529  Q 2819 -91 2034 -91  Q 1250 -91 836 529  Q 422 1150 422 2328  Q 422 3509 836 4129  Q 1250 4750 2034 4750  z "
                   transform="scale(0.015625)" />
              </defs>
              <use
                 xlink:href="#DejaVuSans-30"
                 id="use3" />
            </g>
          </g>
        </g>
        <g
           id="xtick_2">
          <g
             id="line2d_2">
            <g
               id="g4">
              <use
                 xlink:href="#m934e15b6ce"
                 x="301.04375"
                 y="172.321635"
                 style="stroke: #000000; stroke-width: 0.8"
                 id="use4" />
            </g>
          </g>
          <g
             id="text_2">
            <!-- 25 -->
            <g
               transform="translate(294.68125 186.920073) scale(0.1 -0.1)"
               id="g6">
              <defs
                 id="defs4">
                <path
                   id="DejaVuSans-32"
                   d="M 1228 531  L 3431 531  L 3431 0  L 469 0  L 469 531  Q 828 903 1448 1529  Q 2069 2156 2228 2338  Q 2531 2678 2651 2914  Q 2772 3150 2772 3378  Q 2772 3750 2511 3984  Q 2250 4219 1831 4219  Q 1534 4219 1204 4116  Q 875 4013 500 3803  L 500 4441  Q 881 4594 1212 4672  Q 1544 4750 1819 4750  Q 2544 4750 2975 4387  Q 3406 4025 3406 3419  Q 3406 3131 3298 2873  Q 3191 2616 2906 2266  Q 2828 2175 2409 1742  Q 1991 1309 1228 531  z "
                   transform="scale(0.015625)" />
                <path
                   id="DejaVuSans-35"
                   d="M 691 4666  L 3169 4666  L 3169 4134  L 1269 4134  L 1269 2991  Q 1406 3038 1543 3061  Q 1681 3084 1819 3084  Q 2600 3084 3056 2656  Q 3513 2228 3513 1497  Q 3513 744 3044 326  Q 2575 -91 1722 -91  Q 1428 -91 1123 -41  Q 819 9 494 109  L 494 744  Q 775 591 1075 516  Q 1375 441 1709 441  Q 2250 441 2565 725  Q 2881 1009 2881 1497  Q 2881 1984 2565 2268  Q 2250 2553 1709 2553  Q 1456 2553 1204 2497  Q 953 2441 691 2322  L 691 4666  z "
                   transform="scale(0.015625)" />
              </defs>
              <use
                 xlink:href="#DejaVuSans-32"
                 id="use5" />
              <use
                 xlink:href="#DejaVuSans-35"
                 x="63.623047"
                 id="use6" />
            </g>
          </g>
        </g>
        <g
           id="xtick_3">
          <g
             id="line2d_3">
            <g
               id="g7">
              <use
                 xlink:href="#m934e15b6ce"
                 x="566.63726"
                 y="172.321635"
                 style="stroke: #000000; stroke-width: 0.8"
                 id="use7" />
            </g>
          </g>
          <g
             id="text_3">
            <!-- 50 -->
            <g
               transform="translate(560.27476 186.920073) scale(0.1 -0.1)"
               id="g9">
              <use
                 xlink:href="#DejaVuSans-35"
                 id="use8" />
              <use
                 xlink:href="#DejaVuSans-30"
                 x="63.623047"
                 id="use9" />
            </g>
          </g>
        </g>
      </g>
      <g
         id="matplotlib.axis_2">
        <g
           id="ytick_1">
          <g
             id="line2d_4">
            <defs
               id="defs9">
              <path
                 id="mba34ce3d1f"
                 d="M 0 0  L -3.5 0  "
                 style="stroke: #000000; stroke-width: 0.8" />
            </defs>
            <g
               id="g10">
              <use
                 xlink:href="#mba34ce3d1f"
                 x="35.45024"
                 y="171.558252"
                 style="stroke: #000000; stroke-width: 0.8"
                 id="use10" />
            </g>
          </g>
          <g
             id="text_4">
            <!-- −1.0 -->
            <g
               transform="translate(4.167427 175.357471) scale(0.1 -0.1)"
               id="g14">
              <defs
                 id="defs10">
                <path
                   id="DejaVuSans-2212"
                   d="M 678 2272  L 4684 2272  L 4684 1741  L 678 1741  L 678 2272  z "
                   transform="scale(0.015625)" />
                <path
                   id="DejaVuSans-31"
                   d="M 794 531  L 1825 531  L 1825 4091  L 703 3866  L 703 4441  L 1819 4666  L 2450 4666  L 2450 531  L 3481 531  L 3481 0  L 794 0  L 794 531  z "
                   transform="scale(0.015625)" />
                <path
                   id="DejaVuSans-2e"
                   d="M 684 794  L 1344 794  L 1344 0  L 684 0  L 684 794  z "
                   transform="scale(0.015625)" />
              </defs>
              <use
                 xlink:href="#DejaVuSans-2212"
                 id="use11" />
              <use
                 xlink:href="#DejaVuSans-31"
                 x="83.789062"
                 id="use12" />
              <use
                 xlink:href="#DejaVuSans-2e"
                 x="147.412109"
                 id="use13" />
              <use
                 xlink:href="#DejaVuSans-30"
                 x="179.199219"
                 id="use14" />
            </g>
          </g>
        </g>
        <g
           id="ytick_2">
          <g
             id="line2d_5">
            <g
               id="g15">
              <use
                 xlink:href="#mba34ce3d1f"
                 x="35.45024"
                 y="133.389126"
                 style="stroke: #000000; stroke-width: 0.8"
                 id="use15" />
            </g>
          </g>
          <g
             id="text_5">
            <!-- −0.5 -->
            <g
               transform="translate(4.167427 137.188345) scale(0.1 -0.1)"
               id="g19">
              <use
                 xlink:href="#DejaVuSans-2212"
                 id="use16" />
              <use
                 xlink:href="#DejaVuSans-30"
                 x="83.789062"
                 id="use17" />
              <use
                 xlink:href="#DejaVuSans-2e"
                 x="147.412109"
                 id="use18" />
              <use
                 xlink:href="#DejaVuSans-35"
                 x="179.199219"
                 id="use19" />
            </g>
          </g>
        </g>
        <g
           id="ytick_3">
          <g
             id="line2d_6">
            <g
               id="g20">
              <use
                 xlink:href="#mba34ce3d1f"
                 x="35.45024"
                 y="95.22"
                 style="stroke: #000000; stroke-width: 0.8"
                 id="use20" />
            </g>
          </g>
          <g
             id="text_6">
            <!-- 0.0 -->
            <g
               transform="translate(12.547115 99.019219) scale(0.1 -0.1)"
               id="g23">
              <use
                 xlink:href="#DejaVuSans-30"
                 id="use21" />
              <use
                 xlink:href="#DejaVuSans-2e"
                 x="63.623047"
                 id="use22" />
              <use
                 xlink:href="#DejaVuSans-30"
                 x="95.410156"
                 id="use23" />
            </g>
          </g>
        </g>
        <g
           id="ytick_4">
          <g
             id="line2d_7">
            <g
               id="g24">
              <use
                 xlink:href="#mba34ce3d1f"
                 x="35.45024"
                 y="57.050874"
                 style="stroke: #000000; stroke-width: 0.8"
                 id="use24" />
            </g>
          </g>
          <g
             id="text_7">
            <!-- 0.5 -->
            <g
               transform="translate(12.547115 60.850093) scale(0.1 -0.1)"
               id="g27">
              <use
                 xlink:href="#DejaVuSans-30"
                 id="use25" />
              <use
                 xlink:href="#DejaVuSans-2e"
                 x="63.623047"
                 id="use26" />
              <use
                 xlink:href="#DejaVuSans-35"
                 x="95.410156"
                 id="use27" />
            </g>
          </g>
        </g>
        <g
           id="ytick_5">
          <g
             id="line2d_8">
            <g
               id="g28">
              <use
                 xlink:href="#mba34ce3d1f"
                 x="35.45024"
                 y="18.881748"
                 style="stroke: #000000; stroke-width: 0.8"
                 id="use28" />
            </g>
          </g>
          <g
             id="text_8">
            <!-- 1.0 -->
            <g
               transform="translate(12.547115 22.680966) scale(0.1 -0.1)"
               id="g31">
              <use
                 xlink:href="#DejaVuSans-31"
                 id="use29" />
              <use
                 xlink:href="#DejaVuSans-2e"
                 x="63.623047"
                 id="use30" />
              <use
                 xlink:href="#DejaVuSans-30"
                 x="95.410156"
                 id="use31" />
            </g>
          </g>
        </g>
      </g>
      <g
         id="line2d_9">
        <path
           d="M 35.45024 167.821992  L 46.07398 140.090499  L 56.697721 95.22  L 67.321461 95.22  L 77.945202 50.349501  L 88.568942 22.618008  L 99.192682 22.618008  L 109.816423 50.349501  L 120.440163 95.22  L 131.063904 140.090499  L 141.687644 167.821992  L 152.311384 167.821992  L 162.935125 140.090499  L 173.558865 95.22  L 184.182606 95.22  L 194.806346 50.349501  L 205.430086 22.618008  L 216.053827 22.618008  L 226.677567 50.349501  L 237.301308 95.22  L 247.925048 140.090499  L 258.548788 167.821992  L 269.172529 167.821992  L 279.796269 140.090499  L 290.42001 95.22  L 301.04375 95.22  L 311.66749 50.349501  L 322.291231 22.618008  L 332.914971 22.618008  L 343.538712 50.349501  L 354.162452 95.22  L 364.786192 140.090499  L 375.409933 167.821992  L 386.033673 167.821992  L 396.657414 140.090499  L 407.281154 95.22  L 417.904894 95.22  L 428.528635 50.349501  L 439.152375 22.618008  L 449.776116 22.618008  L 460.399856 50.349501  L 471.023596 95.22  L 481.647337 140.090499  L 492.271077 167.821992  L 502.894818 167.821992  L 513.518558 140.090499  L 524.142298 95.22  L 534.766039 95.22  L 545.389779 50.349501  L 556.01352 22.618008  "
           clip-path="url(#pc86fbfe2a3)"
           style="fill: none; stroke: #1f77b4; stroke-width: 1.5; stroke-linecap: square"
           id="path31" />
      </g>
      <g
         id="patch_3">
        <path
           d="M 35.45024 172.321635  L 35.45024 18.118365  "
           style="fill: none; stroke: #000000; stroke-width: 0.8; stroke-linejoin: miter; stroke-linecap: square"
           id="path32" />
      </g>
      <g
         id="patch_4">
        <path
           d="M 566.63726 172.321635  L 566.63726 18.118365  "
           style="fill: none; stroke: #000000; stroke-width: 0.8; stroke-linejoin: miter; stroke-linecap: square"
           id="path33" />
      </g>
      <g
         id="patch_5">
        <path
           d="M 35.45024 172.321635  L 566.63726 172.321635  "
           style="fill: none; stroke: #000000; stroke-width: 0.8; stroke-linejoin: miter; stroke-linecap: square"
           id="path34" />
      </g>
      <g
         id="patch_6">
        <path
           d="M 35.45024 18.118365  L 566.63726 18.118365  "
           style="fill: none; stroke: #000000; stroke-width: 0.8; stroke-linejoin: miter; stroke-linecap: square"
           id="path35" />
      </g>
      <g
         id="text_9">
        <!-- sin -->
        <g
           transform="translate(292.44875 12.118365) scale(0.12 -0.12)"
           id="g37">
          <defs
             id="defs35">
            <path
               id="DejaVuSans-73"
               d="M 2834 3397  L 2834 2853  Q 2591 2978 2328 3040  Q 2066 3103 1784 3103  Q 1356 3103 1142 2972  Q 928 2841 928 2578  Q 928 2378 1081 2264  Q 1234 2150 1697 2047  L 1894 2003  Q 2506 1872 2764 1633  Q 3022 1394 3022 966  Q 3022 478 2636 193  Q 2250 -91 1575 -91  Q 1294 -91 989 -36  Q 684 19 347 128  L 347 722  Q 666 556 975 473  Q 1284 391 1588 391  Q 1994 391 2212 530  Q 2431 669 2431 922  Q 2431 1156 2273 1281  Q 2116 1406 1581 1522  L 1381 1569  Q 847 1681 609 1914  Q 372 2147 372 2553  Q 372 3047 722 3315  Q 1072 3584 1716 3584  Q 2034 3584 2315 3537  Q 2597 3491 2834 3397  z "
               transform="scale(0.015625)" />
            <path
               id="DejaVuSans-69"
               d="M 603 3500  L 1178 3500  L 1178 0  L 603 0  L 603 3500  z M 603 4863  L 1178 4863  L 1178 4134  L 603 4134  L 603 4863  z "
               transform="scale(0.015625)" />
            <path
               id="DejaVuSans-6e"
               d="M 3513 2113  L 3513 0  L 2938 0  L 2938 2094  Q 2938 2591 2744 2837  Q 2550 3084 2163 3084  Q 1697 3084 1428 2787  Q 1159 2491 1159 1978  L 1159 0  L 581 0  L 581 3500  L 1159 3500  L 1159 2956  Q 1366 3272 1645 3428  Q 1925 3584 2291 3584  Q 2894 3584 3203 3211  Q 3513 2838 3513 2113  z "
               transform="scale(0.015625)" />
          </defs>
          <use
             xlink:href="#DejaVuSans-73"
             id="use35" />
          <use
             xlink:href="#DejaVuSans-69"
             x="52.099609"
             id="use36" />
          <use
             xlink:href="#DejaVuSans-6e"
             x="79.882812"
             id="use37" />
        </g>
      </g>
    </g>
    <g
       id="axes_2">
      <g
         id="patch_7">
        <path
           d="M 35.45024 364.321635  L 566.63726 364.321635  L 566.63726 210.118365  L 35.45024 210.118365  z "
           style="fill: #ffffff"
           id="path37" />
      </g>
      <g
         id="matplotlib.axis_3">
        <g
           id="xtick_4">
          <g
             id="line2d_10">
            <g
               id="g38">
              <use
                 xlink:href="#m934e15b6ce"
                 x="35.45024"
                 y="364.321635"
                 style="stroke: #000000; stroke-width: 0.8"
                 id="use38" />
            </g>
          </g>
          <g
             id="text_10">
            <!-- 0 -->
            <g
               transform="translate(32.26899 378.920072) scale(0.1 -0.1)"
               id="g39">
              <use
                 xlink:href="#DejaVuSans-30"
                 id="use39" />
            </g>
          </g>
        </g>
        <g
           id="xtick_5">
          <g
             id="line2d_11">
            <g
               id="g40">
              <use
                 xlink:href="#m934e15b6ce"
                 x="301.04375"
                 y="364.321635"
                 style="stroke: #000000; stroke-width: 0.8"
                 id="use40" />
            </g>
          </g>
          <g
             id="text_11">
            <!-- 25 -->
            <g
               transform="translate(294.68125 378.920072) scale(0.1 -0.1)"
               id="g42">
              <use
                 xlink:href="#DejaVuSans-32"
                 id="use41" />
              <use
                 xlink:href="#DejaVuSans-35"
                 x="63.623047"
                 id="use42" />
            </g>
          </g>
        </g>
        <g
           id="xtick_6">
          <g
             id="line2d_12">
            <g
               id="g43">
              <use
                 xlink:href="#m934e15b6ce"
                 x="566.63726"
                 y="364.321635"
                 style="stroke: #000000; stroke-width: 0.8"
                 id="use43" />
            </g>
          </g>
          <g
             id="text_12">
            <!-- 50 -->
            <g
               transform="translate(560.27476 378.920072) scale(0.1 -0.1)"
               id="g45">
              <use
                 xlink:href="#DejaVuSans-35"
                 id="use44" />
              <use
                 xlink:href="#DejaVuSans-30"
                 x="63.623047"
                 id="use45" />
            </g>
          </g>
        </g>
      </g>
      <g
         id="matplotlib.axis_4">
        <g
           id="ytick_6">
          <g
             id="line2d_13">
            <g
               id="g46">
              <use
                 xlink:href="#mba34ce3d1f"
                 x="35.45024"
                 y="363.558252"
                 style="stroke: #000000; stroke-width: 0.8"
                 id="use46" />
            </g>
          </g>
          <g
             id="text_13">
            <!-- −1.0 -->
            <g
               transform="translate(4.167427 367.357471) scale(0.1 -0.1)"
               id="g50">
              <use
                 xlink:href="#DejaVuSans-2212"
                 id="use47" />
              <use
                 xlink:href="#DejaVuSans-31"
                 x="83.789062"
                 id="use48" />
              <use
                 xlink:href="#DejaVuSans-2e"
                 x="147.412109"
                 id="use49" />
              <use
                 xlink:href="#DejaVuSans-30"
                 x="179.199219"
                 id="use50" />
            </g>
          </g>
        </g>
        <g
           id="ytick_7">
          <g
             id="line2d_14">
            <g
               id="g51">
              <use
                 xlink:href="#mba34ce3d1f"
                 x="35.45024"
                 y="325.389126"
                 style="stroke: #000000; stroke-width: 0.8"
                 id="use51" />
            </g>
          </g>
          <g
             id="text_14">
            <!-- −0.5 -->
            <g
               transform="translate(4.167427 329.188345) scale(0.1 -0.1)"
               id="g55">
              <use
                 xlink:href="#DejaVuSans-2212"
                 id="use52" />
              <use
                 xlink:href="#DejaVuSans-30"
                 x="83.789062"
                 id="use53" />
              <use
                 xlink:href="#DejaVuSans-2e"
                 x="147.412109"
                 id="use54" />
              <use
                 xlink:href="#DejaVuSans-35"
                 x="179.199219"
                 id="use55" />
            </g>
          </g>
        </g>
        <g
           id="ytick_8">
          <g
             id="line2d_15">
            <g
               id="g56">
              <use
                 xlink:href="#mba34ce3d1f"
                 x="35.45024"
                 y="287.22"
                 style="stroke: #000000; stroke-width: 0.8"
                 id="use56" />
            </g>
          </g>
          <g
             id="text_15">
            <!-- 0.0 -->
            <g
               transform="translate(12.547115 291.019219) scale(0.1 -0.1)"
               id="g59">
              <use
                 xlink:href="#DejaVuSans-30"
                 id="use57" />
              <use
                 xlink:href="#DejaVuSans-2e"
                 x="63.623047"
                 id="use58" />
              <use
                 xlink:href="#DejaVuSans-30"
                 x="95.410156"
                 id="use59" />
            </g>
          </g>
        </g>
        <g
           id="ytick_9">
          <g
             id="line2d_16">
            <g
               id="g60">
              <use
                 xlink:href="#mba34ce3d1f"
                 x="35.45024"
                 y="249.050874"
                 style="stroke: #000000; stroke-width: 0.8"
                 id="use60" />
            </g>
          </g>
          <g
             id="text_16">
            <!-- 0.5 -->
            <g
               transform="translate(12.547115 252.850093) scale(0.1 -0.1)"
               id="g63">
              <use
                 xlink:href="#DejaVuSans-30"
                 id="use61" />
              <use
                 xlink:href="#DejaVuSans-2e"
                 x="63.623047"
                 id="use62" />
              <use
                 xlink:href="#DejaVuSans-35"
                 x="95.410156"
                 id="use63" />
            </g>
          </g>
        </g>
        <g
           id="ytick_10">
          <g
             id="line2d_17">
            <g
               id="g64">
              <use
                 xlink:href="#mba34ce3d1f"
                 x="35.45024"
                 y="210.881748"
                 style="stroke: #000000; stroke-width: 0.8"
                 id="use64" />
            </g>
          </g>
          <g
             id="text_17">
            <!-- 1.0 -->
            <g
               transform="translate(12.547115 214.680966) scale(0.1 -0.1)"
               id="g67">
              <use
                 xlink:href="#DejaVuSans-31"
                 id="use65" />
              <use
                 xlink:href="#DejaVuSans-2e"
                 x="63.623047"
                 id="use66" />
              <use
                 xlink:href="#DejaVuSans-30"
                 x="95.410156"
                 id="use67" />
            </g>
          </g>
        </g>
      </g>
      <g
         id="line2d_18">
        <path
           d="M 35.45024 263.630183  L 46.07398 225.461056  L 56.697721 210.881748  L 67.321461 210.881748  L 77.945202 225.461056  L 88.568942 263.630183  L 99.192682 310.809817  L 109.816423 348.978944  L 120.440163 363.558252  L 131.063904 348.978944  L 141.687644 310.809817  L 152.311384 263.630183  L 162.935125 225.461056  L 173.558865 210.881748  L 184.182606 210.881748  L 194.806346 225.461056  L 205.430086 263.630183  L 216.053827 310.809817  L 226.677567 348.978944  L 237.301308 363.558252  L 247.925048 348.978944  L 258.548788 310.809817  L 269.172529 263.630183  L 279.796269 225.461056  L 290.42001 210.881748  L 301.04375 210.881748  L 311.66749 225.461056  L 322.291231 263.630183  L 332.914971 310.809817  L 343.538712 348.978944  L 354.162452 363.558252  L 364.786192 348.978944  L 375.409933 310.809817  L 386.033673 263.630183  L 396.657414 225.461056  L 407.281154 210.881748  L 417.904894 210.881748  L 428.528635 225.461056  L 439.152375 263.630183  L 449.776116 310.809817  L 460.399856 348.978944  L 471.023596 363.558252  L 481.647337 348.978944  L 492.271077 310.809817  L 502.894818 263.630183  L 513.518558 225.461056  L 524.142298 210.881748  L 534.766039 210.881748  L 545.389779 225.461056  L 556.01352 263.630183  "
           clip-path="url(#pc5925c111a)"
           style="fill: none; stroke: #1f77b4; stroke-width: 1.5; stroke-linecap: square"
           id="path67" />
      </g>
      <g
         id="patch_8">
        <path
           d="M 35.45024 364.321635  L 35.45024 210.118365  "
           style="fill: none; stroke: #000000; stroke-width: 0.8; stroke-linejoin: miter; stroke-linecap: square"
           id="path68" />
      </g>
      <g
         id="patch_9">
        <path
           d="M 566.63726 364.321635  L 566.63726 210.118365  "
           style="fill: none; stroke: #000000; stroke-width: 0.8; stroke-linejoin: miter; stroke-linecap: square"
           id="path69" />
      </g>
      <g
         id="patch_10">
        <path
           d="M 35.45024 364.321635  L 566.63726 364.321635  "
           style="fill: none; stroke: #000000; stroke-width: 0.8; stroke-linejoin: miter; stroke-linecap: square"
           id="path70" />
      </g>
      <g
         id="patch_11">
        <path
           d="M 35.45024 210.118365  L 566.63726 210.118365  "
           style="fill: none; stroke: #000000; stroke-width: 0.8; stroke-linejoin: miter; stroke-linecap: square"
           id="path71" />
      </g>
      <g
         id="text_18">
        <!-- cos -->
        <g
           transform="translate(290.947813 204.118365) scale(0.12 -0.12)"
           id="g73">
          <defs
             id="defs71">
            <path
               id="DejaVuSans-63"
               d="M 3122 3366  L 3122 2828  Q 2878 2963 2633 3030  Q 2388 3097 2138 3097  Q 1578 3097 1268 2742  Q 959 2388 959 1747  Q 959 1106 1268 751  Q 1578 397 2138 397  Q 2388 397 2633 464  Q 2878 531 3122 666  L 3122 134  Q 2881 22 2623 -34  Q 2366 -91 2075 -91  Q 1284 -91 818 406  Q 353 903 353 1747  Q 353 2603 823 3093  Q 1294 3584 2113 3584  Q 2378 3584 2631 3529  Q 2884 3475 3122 3366  z "
               transform="scale(0.015625)" />
            <path
               id="DejaVuSans-6f"
               d="M 1959 3097  Q 1497 3097 1228 2736  Q 959 2375 959 1747  Q 959 1119 1226 758  Q 1494 397 1959 397  Q 2419 397 2687 759  Q 2956 1122 2956 1747  Q 2956 2369 2687 2733  Q 2419 3097 1959 3097  z M 1959 3584  Q 2709 3584 3137 3096  Q 3566 2609 3566 1747  Q 3566 888 3137 398  Q 2709 -91 1959 -91  Q 1206 -91 779 398  Q 353 888 353 1747  Q 353 2609 779 3096  Q 1206 3584 1959 3584  z "
               transform="scale(0.015625)" />
          </defs>
          <use
             xlink:href="#DejaVuSans-63"
             id="use71" />
          <use
             xlink:href="#DejaVuSans-6f"
             x="54.980469"
             id="use72" />
          <use
             xlink:href="#DejaVuSans-73"
             x="116.162109"
             id="use73" />
        </g>
      </g>
    </g>
    <g
       id="axes_3">
      <g
         id="patch_12">
        <path
           d="M 35.45024 556.321635  L 566.63726 556.321635  L 566.63726 402.118365  L 35.45024 402.118365  z "
           style="fill: #ffffff"
           id="path73" />
      </g>
      <g
         id="matplotlib.axis_5">
        <g
           id="xtick_7">
          <g
             id="line2d_19">
            <g
               id="g74">
              <use
                 xlink:href="#m934e15b6ce"
                 x="35.45024"
                 y="556.321635"
                 style="stroke: #000000; stroke-width: 0.8"
                 id="use74" />
            </g>
          </g>
          <g
             id="text_19">
            <!-- 0 -->
            <g
               transform="translate(32.26899 570.920072) scale(0.1 -0.1)"
               id="g75">
              <use
                 xlink:href="#DejaVuSans-30"
                 id="use75" />
            </g>
          </g>
        </g>
        <g
           id="xtick_8">
          <g
             id="line2d_20">
            <g
               id="g76">
              <use
                 xlink:href="#m934e15b6ce"
                 x="301.04375"
                 y="556.321635"
                 style="stroke: #000000; stroke-width: 0.8"
                 id="use76" />
            </g>
          </g>
          <g
             id="text_20">
            <!-- 25 -->
            <g
               transform="translate(294.68125 570.920072) scale(0.1 -0.1)"
               id="g78">
              <use
                 xlink:href="#DejaVuSans-32"
                 id="use77" />
              <use
                 xlink:href="#DejaVuSans-35"
                 x="63.623047"
                 id="use78" />
            </g>
          </g>
        </g>
        <g
           id="xtick_9">
          <g
             id="line2d_21">
            <g
               id="g79">
              <use
                 xlink:href="#m934e15b6ce"
                 x="566.63726"
                 y="556.321635"
                 style="stroke: #000000; stroke-width: 0.8"
                 id="use79" />
            </g>
          </g>
          <g
             id="text_21">
            <!-- 50 -->
            <g
               transform="translate(560.27476 570.920072) scale(0.1 -0.1)"
               id="g81">
              <use
                 xlink:href="#DejaVuSans-35"
                 id="use80" />
              <use
                 xlink:href="#DejaVuSans-30"
                 x="63.623047"
                 id="use81" />
            </g>
          </g>
        </g>
      </g>
      <g
         id="matplotlib.axis_6">
        <g
           id="ytick_11">
          <g
             id="line2d_22">
            <g
               id="g82">
              <use
                 xlink:href="#mba34ce3d1f"
                 x="35.45024"
                 y="556.283103"
                 style="stroke: #000000; stroke-width: 0.8"
                 id="use82" />
            </g>
          </g>
          <g
             id="text_22">
            <!-- 1000 -->
            <g
               transform="translate(3.00024 560.082322) scale(0.1 -0.1)"
               id="g86">
              <use
                 xlink:href="#DejaVuSans-31"
                 id="use83" />
              <use
                 xlink:href="#DejaVuSans-30"
                 x="63.623047"
                 id="use84" />
              <use
                 xlink:href="#DejaVuSans-30"
                 x="127.246094"
                 id="use85" />
              <use
                 xlink:href="#DejaVuSans-30"
                 x="190.869141"
                 id="use86" />
            </g>
          </g>
        </g>
        <g
           id="ytick_12">
          <g
             id="line2d_23">
            <g
               id="g87">
              <use
                 xlink:href="#mba34ce3d1f"
                 x="35.45024"
                 y="517.751552"
                 style="stroke: #000000; stroke-width: 0.8"
                 id="use87" />
            </g>
          </g>
          <g
             id="text_23">
            <!-- 2000 -->
            <g
               transform="translate(3.00024 521.55077) scale(0.1 -0.1)"
               id="g91">
              <use
                 xlink:href="#DejaVuSans-32"
                 id="use88" />
              <use
                 xlink:href="#DejaVuSans-30"
                 x="63.623047"
                 id="use89" />
              <use
                 xlink:href="#DejaVuSans-30"
                 x="127.246094"
                 id="use90" />
              <use
                 xlink:href="#DejaVuSans-30"
                 x="190.869141"
                 id="use91" />
            </g>
          </g>
        </g>
        <g
           id="ytick_13">
          <g
             id="line2d_24">
            <g
               id="g92">
              <use
                 xlink:href="#mba34ce3d1f"
                 x="35.45024"
                 y="479.22"
                 style="stroke: #000000; stroke-width: 0.8"
                 id="use92" />
            </g>
          </g>
          <g
             id="text_24">
            <!-- 3000 -->
            <g
               transform="translate(3.00024 483.019219) scale(0.1 -0.1)"
               id="g96">
              <defs
                 id="defs92">
                <path
                   id="DejaVuSans-33"
                   d="M 2597 2516  Q 3050 2419 3304 2112  Q 3559 1806 3559 1356  Q 3559 666 3084 287  Q 2609 -91 1734 -91  Q 1441 -91 1130 -33  Q 819 25 488 141  L 488 750  Q 750 597 1062 519  Q 1375 441 1716 441  Q 2309 441 2620 675  Q 2931 909 2931 1356  Q 2931 1769 2642 2001  Q 2353 2234 1838 2234  L 1294 2234  L 1294 2753  L 1863 2753  Q 2328 2753 2575 2939  Q 2822 3125 2822 3475  Q 2822 3834 2567 4026  Q 2313 4219 1838 4219  Q 1578 4219 1281 4162  Q 984 4106 628 3988  L 628 4550  Q 988 4650 1302 4700  Q 1616 4750 1894 4750  Q 2613 4750 3031 4423  Q 3450 4097 3450 3541  Q 3450 3153 3228 2886  Q 3006 2619 2597 2516  z "
                   transform="scale(0.015625)" />
              </defs>
              <use
                 xlink:href="#DejaVuSans-33"
                 id="use93" />
              <use
                 xlink:href="#DejaVuSans-30"
                 x="63.623047"
                 id="use94" />
              <use
                 xlink:href="#DejaVuSans-30"
                 x="127.246094"
                 id="use95" />
              <use
                 xlink:href="#DejaVuSans-30"
                 x="190.869141"
                 id="use96" />
            </g>
          </g>
        </g>
        <g
           id="ytick_14">
          <g
             id="line2d_25">
            <g
               id="g97">
              <use
                 xlink:href="#mba34ce3d1f"
                 x="35.45024"
                 y="440.688448"
                 style="stroke: #000000; stroke-width: 0.8"
                 id="use97" />
            </g>
          </g>
          <g
             id="text_25">
            <!-- 4000 -->
            <g
               transform="translate(3.00024 444.487667) scale(0.1 -0.1)"
               id="g101">
              <defs
                 id="defs97">
                <path
                   id="DejaVuSans-34"
                   d="M 2419 4116  L 825 1625  L 2419 1625  L 2419 4116  z M 2253 4666  L 3047 4666  L 3047 1625  L 3713 1625  L 3713 1100  L 3047 1100  L 3047 0  L 2419 0  L 2419 1100  L 313 1100  L 313 1709  L 2253 4666  z "
                   transform="scale(0.015625)" />
              </defs>
              <use
                 xlink:href="#DejaVuSans-34"
                 id="use98" />
              <use
                 xlink:href="#DejaVuSans-30"
                 x="63.623047"
                 id="use99" />
              <use
                 xlink:href="#DejaVuSans-30"
                 x="127.246094"
                 id="use100" />
              <use
                 xlink:href="#DejaVuSans-30"
                 x="190.869141"
                 id="use101" />
            </g>
          </g>
        </g>
        <g
           id="ytick_15">
          <g
             id="line2d_26">
            <g
               id="g102">
              <use
                 xlink:href="#mba34ce3d1f"
                 x="35.45024"
                 y="402.156897"
                 style="stroke: #000000; stroke-width: 0.8"
                 id="use102" />
            </g>
          </g>
          <g
             id="text_26">
            <!-- 5000 -->
            <g
               transform="translate(3.00024 405.956115) scale(0.1 -0.1)"
               id="g106">
              <use
                 xlink:href="#DejaVuSans-35"
                 id="use103" />
              <use
                 xlink:href="#DejaVuSans-30"
                 x="63.623047"
                 id="use104" />
              <use
                 xlink:href="#DejaVuSans-30"
                 x="127.246094"
                 id="use105" />
              <use
                 xlink:href="#DejaVuSans-30"
                 x="190.869141"
                 id="use106" />
            </g>
          </g>
        </g>
      </g>
      <g
         id="line2d_27">
        <path
           d="M 35.45024 410.287054  L 46.07398 529.079828  L 56.697721 499.025218  L 67.321461 479.297063  L 77.945202 474.210898  L 88.568942 432.018849  L 99.192682 462.728496  L 109.816423 536.554949  L 120.440163 544.222728  L 131.063904 487.851068  L 141.687644 514.013991  L 152.311384 552.083164  L 162.935125 502.57012  L 173.558865 468.161445  L 184.182606 472.746699  L 194.806346 453.249734  L 205.430086 521.604707  L 216.053827 427.048279  L 226.677567 452.479103  L 237.301308 543.490628  L 247.925048 520.564355  L 258.548788 541.024609  L 269.172529 414.91084  L 279.796269 539.714536  L 290.42001 449.512174  L 301.04375 502.454526  L 311.66749 520.834076  L 322.291231 525.804646  L 332.914971 540.56223  L 343.538712 522.18268  L 354.162452 420.767636  L 364.786192 549.617145  L 375.409933 418.802527  L 386.033673 418.725464  L 396.657414 449.704831  L 407.281154 489.469393  L 417.904894 519.408408  L 428.528635 495.672973  L 439.152375 494.517026  L 449.776116 475.867755  L 460.399856 406.279773  L 471.023596 476.291602  L 481.647337 471.012779  L 492.271077 520.872607  L 502.894818 426.200585  L 513.518558 527.88535  L 524.142298 528.309197  L 534.766039 439.917817  L 545.389779 408.93845  L 556.01352 544.299791  "
           clip-path="url(#pe0e8ca6bdc)"
           style="fill: none; stroke: #1f77b4; stroke-width: 1.5; stroke-linecap: square"
           id="path106" />
      </g>
      <g
         id="patch_13">
        <path
           d="M 35.45024 556.321635  L 35.45024 402.118365  "
           style="fill: none; stroke: #000000; stroke-width: 0.8; stroke-linejoin: miter; stroke-linecap: square"
           id="path107" />
      </g>
      <g
         id="patch_14">
        <path
           d="M 566.63726 556.321635  L 566.63726 402.118365  "
           style="fill: none; stroke: #000000; stroke-width: 0.8; stroke-linejoin: miter; stroke-linecap: square"
           id="path108" />
      </g>
      <g
         id="patch_15">
        <path
           d="M 35.45024 556.321635  L 566.63726 556.321635  "
           style="fill: none; stroke: #000000; stroke-width: 0.8; stroke-linejoin: miter; stroke-linecap: square"
           id="path109" />
      </g>
      <g
         id="patch_16">
        <path
           d="M 35.45024 402.118365  L 566.63726 402.118365  "
           style="fill: none; stroke: #000000; stroke-width: 0.8; stroke-linejoin: miter; stroke-linecap: square"
           id="path110" />
      </g>
      <g
         id="text_27">
        <!-- rand -->
        <g
           transform="translate(287.28875 396.118365) scale(0.12 -0.12)"
           id="g113">
          <defs
             id="defs110">
            <path
               id="DejaVuSans-72"
               d="M 2631 2963  Q 2534 3019 2420 3045  Q 2306 3072 2169 3072  Q 1681 3072 1420 2755  Q 1159 2438 1159 1844  L 1159 0  L 581 0  L 581 3500  L 1159 3500  L 1159 2956  Q 1341 3275 1631 3429  Q 1922 3584 2338 3584  Q 2397 3584 2469 3576  Q 2541 3569 2628 3553  L 2631 2963  z "
               transform="scale(0.015625)" />
            <path
               id="DejaVuSans-61"
               d="M 2194 1759  Q 1497 1759 1228 1600  Q 959 1441 959 1056  Q 959 750 1161 570  Q 1363 391 1709 391  Q 2188 391 2477 730  Q 2766 1069 2766 1631  L 2766 1759  L 2194 1759  z M 3341 1997  L 3341 0  L 2766 0  L 2766 531  Q 2569 213 2275 61  Q 1981 -91 1556 -91  Q 1019 -91 701 211  Q 384 513 384 1019  Q 384 1609 779 1909  Q 1175 2209 1959 2209  L 2766 2209  L 2766 2266  Q 2766 2663 2505 2880  Q 2244 3097 1772 3097  Q 1472 3097 1187 3025  Q 903 2953 641 2809  L 641 3341  Q 956 3463 1253 3523  Q 1550 3584 1831 3584  Q 2591 3584 2966 3190  Q 3341 2797 3341 1997  z "
               transform="scale(0.015625)" />
            <path
               id="DejaVuSans-64"
               d="M 2906 2969  L 2906 4863  L 3481 4863  L 3481 0  L 2906 0  L 2906 525  Q 2725 213 2448 61  Q 2172 -91 1784 -91  Q 1150 -91 751 415  Q 353 922 353 1747  Q 353 2572 751 3078  Q 1150 3584 1784 3584  Q 2172 3584 2448 3432  Q 2725 3281 2906 2969  z M 947 1747  Q 947 1113 1208 752  Q 1469 391 1925 391  Q 2381 391 2643 752  Q 2906 1113 2906 1747  Q 2906 2381 2643 2742  Q 2381 3103 1925 3103  Q 1469 3103 1208 2742  Q 947 2381 947 1747  z "
               transform="scale(0.015625)" />
          </defs>
          <use
             xlink:href="#DejaVuSans-72"
             id="use110" />
          <use
             xlink:href="#DejaVuSans-61"
             x="41.113281"
             id="use111" />
          <use
             xlink:href="#DejaVuSans-6e"
             x="102.392578"
             id="use112" />
          <use
             xlink:href="#DejaVuSans-64"
             x="165.771484"
             id="use113" />
        </g>
      </g>
    </g>
  </g>
  <defs
     id="defs115">
    <clipPath
       id="pc86fbfe2a3">
      <rect
         x="35.45024"
         y="18.118365"
         width="531.18702"
         height="154.20327"
         id="rect113" />
    </clipPath>
    <clipPath
       id="pc5925c111a">
      <rect
         x="35.45024"
         y="210.118365"
         width="531.18702"
         height="154.20327"
         id="rect114" />
    </clipPath>
    <clipPath
       id="pe0e8ca6bdc">
      <rect
         x="35.45024"
         y="402.118365"
         width="531.18702"
         height="154.20327"
         id="rect115" />
    </clipPath>
  </defs>
</svg>
