<?xml version="1.0" encoding="UTF-8" standalone="no"?>
<svg
   width="800pt"
   height="500pt"
   viewBox="0 0 800 500"
   version="1.1"
   id="svg65"
   sodipodi:docname="matplotlib-concepts.svg"
   inkscape:version="1.3 (0e150ed6c4, 2023-07-21)"
   xmlns:inkscape="http://www.inkscape.org/namespaces/inkscape"
   xmlns:sodipodi="http://sodipodi.sourceforge.net/DTD/sodipodi-0.dtd"
   xmlns:xlink="http://www.w3.org/1999/xlink"
   xmlns="http://www.w3.org/2000/svg"
   xmlns:svg="http://www.w3.org/2000/svg"
   xmlns:rdf="http://www.w3.org/1999/02/22-rdf-syntax-ns#"
   xmlns:cc="http://creativecommons.org/ns#"
   xmlns:dc="http://purl.org/dc/elements/1.1/">
  <sodipodi:namedview
     id="namedview65"
     pagecolor="#ffffff"
     bordercolor="#000000"
     borderopacity="0.25"
     inkscape:showpageshadow="2"
     inkscape:pageopacity="0.0"
     inkscape:pagecheckerboard="0"
     inkscape:deskcolor="#d1d1d1"
     inkscape:document-units="pt"
     showgrid="false"
     inkscape:zoom="2.0000001"
     inkscape:cx="791.74998"
     inkscape:cy="311.24999"
     inkscape:window-width="2560"
     inkscape:window-height="1334"
     inkscape:window-x="-11"
     inkscape:window-y="-11"
     inkscape:window-maximized="1"
     inkscape:current-layer="svg65" />
  <metadata
     id="metadata1">
    <rdf:RDF>
      <cc:Work>
        <dc:type
           rdf:resource="http://purl.org/dc/dcmitype/StillImage" />
        <dc:date>2024-02-24T18:25:47.884535</dc:date>
        <dc:format>image/svg+xml</dc:format>
        <dc:creator>
          <cc:Agent>
            <dc:title>Matplotlib v3.7.1, https://matplotlib.org/</dc:title>
          </cc:Agent>
        </dc:creator>
      </cc:Work>
    </rdf:RDF>
  </metadata>
  <defs
     id="defs1">
    <style
       type="text/css"
       id="style1">*{stroke-linejoin: round; stroke-linecap: butt}</style>
    <marker
       style="overflow:visible"
       id="ConcaveTriangle-0"
       refX="0"
       refY="0"
       orient="auto-start-reverse"
       inkscape:stockid="Concave triangle arrow"
       markerWidth="1"
       markerHeight="1"
       viewBox="0 0 1 1"
       inkscape:isstock="true"
       inkscape:collect="always"
       preserveAspectRatio="xMidYMid">
      <path
         transform="scale(0.7)"
         d="M -2,-4 9,0 -2,4 c 2,-2.33 2,-5.66 0,-8 z"
         style="fill:context-stroke;fill-rule:evenodd;stroke:none"
         id="path7-2" />
    </marker>
    <marker
       style="overflow:visible"
       id="ConcaveTriangle-0-83"
       refX="0"
       refY="0"
       orient="auto-start-reverse"
       inkscape:stockid="Concave triangle arrow"
       markerWidth="1"
       markerHeight="1"
       viewBox="0 0 1 1"
       inkscape:isstock="true"
       inkscape:collect="always"
       preserveAspectRatio="xMidYMid">
      <path
         transform="scale(0.7)"
         d="M -2,-4 9,0 -2,4 c 2,-2.33 2,-5.66 0,-8 z"
         style="fill:context-stroke;fill-rule:evenodd;stroke:none"
         id="path7-2-3" />
    </marker>
    <marker
       style="overflow:visible"
       id="ConcaveTriangle-0-1"
       refX="0"
       refY="0"
       orient="auto-start-reverse"
       inkscape:stockid="Concave triangle arrow"
       markerWidth="1"
       markerHeight="1"
       viewBox="0 0 1 1"
       inkscape:isstock="true"
       inkscape:collect="always"
       preserveAspectRatio="xMidYMid">
      <path
         transform="scale(0.7)"
         d="M -2,-4 9,0 -2,4 c 2,-2.33 2,-5.66 0,-8 z"
         style="fill:context-stroke;fill-rule:evenodd;stroke:none"
         id="path7-2-5" />
    </marker>
    <marker
       style="overflow:visible"
       id="ConcaveTriangle-0-1-6"
       refX="0"
       refY="0"
       orient="auto-start-reverse"
       inkscape:stockid="Concave triangle arrow"
       markerWidth="1"
       markerHeight="1"
       viewBox="0 0 1 1"
       inkscape:isstock="true"
       inkscape:collect="always"
       preserveAspectRatio="xMidYMid">
      <path
         transform="scale(0.7)"
         d="M -2,-4 9,0 -2,4 c 2,-2.33 2,-5.66 0,-8 z"
         style="fill:context-stroke;fill-rule:evenodd;stroke:none"
         id="path7-2-5-5" />
    </marker>
  </defs>
  <rect
     style="fill:#ffffff;fill-opacity:1;stroke:none;stroke-width:1.5;stroke-linecap:round;stroke-linejoin:miter;stroke-dasharray:none;stroke-dashoffset:0;stroke-opacity:1"
     id="rect225"
     width="800"
     height="500"
     x="0"
     y="0" />
  <g
     id="figure_1"
     transform="translate(112,34)">
    <g
       id="patch_1">
      <path
         d="M 0,432 H 576 V 0 H 0 Z"
         style="fill:#ffffff"
         id="path1" />
    </g>
    <g
       id="axes_1">
      <g
         id="patch_2">
        <path
           d="M 72,384.48 H 518.4 V 51.84 H 72 Z"
           style="fill:#ffffff"
           id="path2" />
      </g>
      <g
         id="matplotlib.axis_1">
        <g
           id="xtick_1">
          <g
             id="line2d_1">
            <defs
               id="defs2">
              <path
                 id="m5bc2e47d8c"
                 d="M 0,0 V 3.5"
                 style="stroke:#000000;stroke-width:0.8" />
            </defs>
            <g
               id="g2">
              <use
                 xlink:href="#m5bc2e47d8c"
                 x="92.290909"
                 y="384.48001"
                 style="stroke:#000000;stroke-width:0.8"
                 id="use2" />
            </g>
          </g>
          <g
             id="text_1">
            <!-- 0 -->
            <g
               transform="matrix(0.1,0,0,-0.1,89.109659,399.07844)"
               id="g3">
              <defs
                 id="defs3">
                <path
                   id="DejaVuSans-30"
                   d="m 2034,4250 q -487,0 -733,-480 -245,-479 -245,-1442 0,-959 245,-1439 246,-480 733,-480 491,0 736,480 246,480 246,1439 0,963 -246,1442 -245,480 -736,480 z m 0,500 q 785,0 1199,-621 414,-620 414,-1801 0,-1178 -414,-1799 -414,-620 -1199,-620 -784,0 -1198,620 -414,621 -414,1799 0,1181 414,1801 414,621 1198,621 z"
                   transform="scale(0.015625)" />
              </defs>
              <use
                 xlink:href="#DejaVuSans-30"
                 id="use3" />
            </g>
          </g>
        </g>
        <g
           id="xtick_2">
          <g
             id="line2d_2">
            <g
               id="g4">
              <use
                 xlink:href="#m5bc2e47d8c"
                 x="173.45454"
                 y="384.48001"
                 style="stroke:#000000;stroke-width:0.8"
                 id="use4" />
            </g>
          </g>
          <g
             id="text_2">
            <!-- 2 -->
            <g
               transform="matrix(0.1,0,0,-0.1,170.27329,399.07844)"
               id="g5">
              <defs
                 id="defs4">
                <path
                   id="DejaVuSans-32"
                   d="M 1228,531 H 3431 V 0 H 469 v 531 q 359,372 979,998 621,627 780,809 303,340 423,576 121,236 121,464 0,372 -261,606 -261,235 -680,235 -297,0 -627,-103 -329,-103 -704,-313 v 638 q 381,153 712,231 332,78 607,78 725,0 1156,-363 431,-362 431,-968 0,-288 -108,-546 -107,-257 -392,-607 -78,-91 -497,-524 Q 1991,1309 1228,531 Z"
                   transform="scale(0.015625)" />
              </defs>
              <use
                 xlink:href="#DejaVuSans-32"
                 id="use5" />
            </g>
          </g>
        </g>
        <g
           id="xtick_3">
          <g
             id="line2d_3">
            <g
               id="g6">
              <use
                 xlink:href="#m5bc2e47d8c"
                 x="254.61818"
                 y="384.48001"
                 style="stroke:#000000;stroke-width:0.8"
                 id="use6" />
            </g>
          </g>
          <g
             id="text_3">
            <!-- 4 -->
            <g
               transform="matrix(0.1,0,0,-0.1,251.43693,399.07844)"
               id="g7">
              <defs
                 id="defs6">
                <path
                   id="DejaVuSans-34"
                   d="M 2419,4116 825,1625 h 1594 z m -166,550 h 794 V 1625 h 666 V 1100 H 3047 V 0 H 2419 V 1100 H 313 v 609 z"
                   transform="scale(0.015625)" />
              </defs>
              <use
                 xlink:href="#DejaVuSans-34"
                 id="use7" />
            </g>
          </g>
        </g>
        <g
           id="xtick_4">
          <g
             id="line2d_4">
            <g
               id="g8">
              <use
                 xlink:href="#m5bc2e47d8c"
                 x="335.78183"
                 y="384.48001"
                 style="stroke:#000000;stroke-width:0.8"
                 id="use8" />
            </g>
          </g>
          <g
             id="text_4">
            <!-- 6 -->
            <g
               transform="matrix(0.1,0,0,-0.1,332.60057,399.07844)"
               id="g9">
              <defs
                 id="defs8">
                <path
                   id="DejaVuSans-36"
                   d="m 2113,2584 q -425,0 -674,-291 -248,-290 -248,-796 0,-503 248,-796 249,-292 674,-292 425,0 673,292 248,293 248,796 0,506 -248,796 -248,291 -673,291 z m 1253,1979 v -575 q -238,112 -480,171 -242,60 -480,60 -625,0 -955,-422 -329,-422 -376,-1275 184,272 462,417 279,145 613,145 703,0 1111,-427 408,-426 408,-1160 0,-719 -425,-1154 -425,-434 -1131,-434 -810,0 -1238,620 -428,621 -428,1799 0,1106 525,1764 525,658 1409,658 238,0 480,-47 242,-47 505,-140 z"
                   transform="scale(0.015625)" />
              </defs>
              <use
                 xlink:href="#DejaVuSans-36"
                 id="use9" />
            </g>
          </g>
        </g>
        <g
           id="xtick_5">
          <g
             id="line2d_5">
            <g
               id="g10">
              <use
                 xlink:href="#m5bc2e47d8c"
                 x="416.94547"
                 y="384.48001"
                 style="stroke:#000000;stroke-width:0.8"
                 id="use10" />
            </g>
          </g>
          <g
             id="text_5">
            <!-- 8 -->
            <g
               transform="matrix(0.1,0,0,-0.1,413.7642,399.07844)"
               id="g11">
              <defs
                 id="defs10">
                <path
                   id="DejaVuSans-38"
                   d="m 2034,2216 q -450,0 -708,-241 -257,-241 -257,-662 0,-422 257,-663 258,-241 708,-241 450,0 709,242 260,243 260,662 0,421 -258,662 -257,241 -711,241 z m -631,268 q -406,100 -633,378 -226,279 -226,679 0,559 398,884 399,325 1092,325 697,0 1094,-325 397,-325 397,-884 0,-400 -227,-679 -226,-278 -629,-378 456,-106 710,-416 255,-309 255,-755 Q 3634,634 3220,271 2806,-91 2034,-91 1263,-91 848,271 434,634 434,1313 q 0,446 256,755 257,310 713,416 z m -231,997 q 0,-362 226,-565 227,-203 636,-203 407,0 636,203 230,203 230,565 0,363 -230,566 -229,203 -636,203 -409,0 -636,-203 -226,-203 -226,-566 z"
                   transform="scale(0.015625)" />
              </defs>
              <use
                 xlink:href="#DejaVuSans-38"
                 id="use11" />
            </g>
          </g>
        </g>
        <g
           id="xtick_6">
          <g
             id="line2d_6">
            <g
               id="g12">
              <use
                 xlink:href="#m5bc2e47d8c"
                 x="498.1091"
                 y="384.48001"
                 style="stroke:#000000;stroke-width:0.8"
                 id="use12" />
            </g>
          </g>
          <g
             id="text_6">
            <!-- 10 -->
            <g
               transform="matrix(0.1,0,0,-0.1,491.74659,399.07844)"
               id="g14">
              <defs
                 id="defs12">
                <path
                   id="DejaVuSans-31"
                   d="M 794,531 H 1825 V 4091 L 703,3866 v 575 l 1116,225 h 631 V 531 H 3481 V 0 H 794 Z"
                   transform="scale(0.015625)" />
              </defs>
              <use
                 xlink:href="#DejaVuSans-31"
                 id="use13" />
              <use
                 xlink:href="#DejaVuSans-30"
                 x="63.623047"
                 id="use14" />
            </g>
          </g>
        </g>
        <g
           id="text_7">
          <!-- Time [s] -->
          <g
             transform="matrix(0.1,0,0,-0.1,274.87109,412.75656)"
             id="g22">
            <defs
               id="defs14">
              <path
                 id="DejaVuSans-54"
                 d="M -19,4666 H 3928 V 4134 H 2272 V 0 H 1638 V 4134 H -19 Z"
                 transform="scale(0.015625)" />
              <path
                 id="DejaVuSans-69"
                 d="m 603,3500 h 575 V 0 H 603 Z m 0,1363 h 575 V 4134 H 603 Z"
                 transform="scale(0.015625)" />
              <path
                 id="DejaVuSans-6d"
                 d="m 3328,2828 q 216,388 516,572 300,184 706,184 547,0 844,-383 297,-382 297,-1088 V 0 h -578 v 2094 q 0,503 -179,746 -178,244 -543,244 -447,0 -707,-297 -259,-296 -259,-809 V 0 h -578 v 2094 q 0,506 -178,748 -178,242 -550,242 -441,0 -701,-298 -259,-298 -259,-808 V 0 H 581 v 3500 h 578 v -544 q 197,322 472,475 275,153 653,153 382,0 649,-194 267,-193 395,-562 z"
                 transform="scale(0.015625)" />
              <path
                 id="DejaVuSans-65"
                 d="M 3597,1894 V 1613 H 953 q 38,-594 358,-905 320,-311 892,-311 331,0 642,81 311,81 618,244 V 178 Q 3153,47 2828,-22 2503,-91 2169,-91 1331,-91 842,396 353,884 353,1716 q 0,859 464,1363 464,505 1252,505 706,0 1117,-455 411,-454 411,-1235 z m -575,169 q -6,471 -264,752 -258,282 -683,282 -481,0 -770,-272 -289,-272 -333,-766 z"
                 transform="scale(0.015625)" />
              <path
                 id="DejaVuSans-20"
                 transform="scale(0.015625)"
                 d="" />
              <path
                 id="DejaVuSans-5b"
                 d="M 550,4863 H 1875 V 4416 H 1125 V -397 h 750 V -844 H 550 Z"
                 transform="scale(0.015625)" />
              <path
                 id="DejaVuSans-73"
                 d="m 2834,3397 v -544 q -243,125 -506,187 -262,63 -544,63 -428,0 -642,-131 -214,-131 -214,-394 0,-200 153,-314 153,-114 616,-217 l 197,-44 q 612,-131 870,-370 258,-239 258,-667 0,-488 -386,-773 Q 2250,-91 1575,-91 1294,-91 989,-36 684,19 347,128 v 594 q 319,-166 628,-249 309,-82 613,-82 406,0 624,139 219,139 219,392 0,234 -158,359 -157,125 -692,241 l -200,47 q -534,112 -772,345 -237,233 -237,639 0,494 350,762 350,269 994,269 318,0 599,-47 282,-46 519,-140 z"
                 transform="scale(0.015625)" />
              <path
                 id="DejaVuSans-5d"
                 d="M 1947,4863 V -844 H 622 v 447 h 747 V 4416 H 622 v 447 z"
                 transform="scale(0.015625)" />
            </defs>
            <use
               xlink:href="#DejaVuSans-54"
               id="use15" />
            <use
               xlink:href="#DejaVuSans-69"
               x="57.958984"
               id="use16" />
            <use
               xlink:href="#DejaVuSans-6d"
               x="85.742188"
               id="use17" />
            <use
               xlink:href="#DejaVuSans-65"
               x="183.1543"
               id="use18" />
            <use
               xlink:href="#DejaVuSans-20"
               x="244.67773"
               id="use19" />
            <use
               xlink:href="#DejaVuSans-5b"
               x="276.46484"
               id="use20" />
            <use
               xlink:href="#DejaVuSans-73"
               x="315.47852"
               id="use21" />
            <use
               xlink:href="#DejaVuSans-5d"
               x="367.57812"
               id="use22" />
          </g>
        </g>
      </g>
      <g
         id="matplotlib.axis_2">
        <g
           id="ytick_1">
          <g
             id="line2d_7">
            <defs
               id="defs22">
              <path
                 id="m9e082a9b57"
                 d="M 0,0 H -3.5"
                 style="stroke:#000000;stroke-width:0.8" />
            </defs>
            <g
               id="g23">
              <use
                 xlink:href="#m9e082a9b57"
                 x="72"
                 y="347.76001"
                 style="stroke:#000000;stroke-width:0.8"
                 id="use23" />
            </g>
          </g>
          <g
             id="text_8">
            <!-- −4 -->
            <g
               transform="matrix(0.1,0,0,-0.1,50.257812,351.55922)"
               id="g25">
              <defs
                 id="defs23">
                <path
                   id="DejaVuSans-2212"
                   d="M 678,2272 H 4684 V 1741 H 678 Z"
                   transform="scale(0.015625)" />
              </defs>
              <use
                 xlink:href="#DejaVuSans-2212"
                 id="use24" />
              <use
                 xlink:href="#DejaVuSans-34"
                 x="83.789062"
                 id="use25" />
            </g>
          </g>
        </g>
        <g
           id="ytick_2">
          <g
             id="line2d_8">
            <g
               id="g26">
              <use
                 xlink:href="#m9e082a9b57"
                 x="72"
                 y="304.56"
                 style="stroke:#000000;stroke-width:0.8"
                 id="use26" />
            </g>
          </g>
          <g
             id="text_9">
            <!-- −2 -->
            <g
               transform="matrix(0.1,0,0,-0.1,50.257812,308.35922)"
               id="g28">
              <use
                 xlink:href="#DejaVuSans-2212"
                 id="use27" />
              <use
                 xlink:href="#DejaVuSans-32"
                 x="83.789062"
                 id="use28" />
            </g>
          </g>
        </g>
        <g
           id="ytick_3">
          <g
             id="line2d_9">
            <g
               id="g29">
              <use
                 xlink:href="#m9e082a9b57"
                 x="72"
                 y="261.35999"
                 style="stroke:#000000;stroke-width:0.8"
                 id="use29" />
            </g>
          </g>
          <g
             id="text_10">
            <!-- 0 -->
            <g
               transform="matrix(0.1,0,0,-0.1,58.6375,265.15922)"
               id="g30">
              <use
                 xlink:href="#DejaVuSans-30"
                 id="use30" />
            </g>
          </g>
        </g>
        <g
           id="ytick_4">
          <g
             id="line2d_10">
            <g
               id="g31">
              <use
                 xlink:href="#m9e082a9b57"
                 x="72"
                 y="218.16"
                 style="stroke:#000000;stroke-width:0.8"
                 id="use31" />
            </g>
          </g>
          <g
             id="text_11">
            <!-- 2 -->
            <g
               transform="matrix(0.1,0,0,-0.1,58.6375,221.95922)"
               id="g32">
              <use
                 xlink:href="#DejaVuSans-32"
                 id="use32" />
            </g>
          </g>
        </g>
        <g
           id="ytick_5">
          <g
             id="line2d_11">
            <g
               id="g33">
              <use
                 xlink:href="#m9e082a9b57"
                 x="72"
                 y="174.96001"
                 style="stroke:#000000;stroke-width:0.8"
                 id="use33" />
            </g>
          </g>
          <g
             id="text_12">
            <!-- 4 -->
            <g
               transform="matrix(0.1,0,0,-0.1,58.6375,178.75922)"
               id="g34">
              <use
                 xlink:href="#DejaVuSans-34"
                 id="use34" />
            </g>
          </g>
        </g>
        <g
           id="ytick_6">
          <g
             id="line2d_12">
            <g
               id="g35">
              <use
                 xlink:href="#m9e082a9b57"
                 x="72"
                 y="131.75999"
                 style="stroke:#000000;stroke-width:0.8"
                 id="use35" />
            </g>
          </g>
          <g
             id="text_13">
            <!-- 6 -->
            <g
               transform="matrix(0.1,0,0,-0.1,58.6375,135.55922)"
               id="g36">
              <use
                 xlink:href="#DejaVuSans-36"
                 id="use36" />
            </g>
          </g>
        </g>
        <g
           id="ytick_7">
          <g
             id="line2d_13">
            <g
               id="g37">
              <use
                 xlink:href="#m9e082a9b57"
                 x="72"
                 y="88.559998"
                 style="stroke:#000000;stroke-width:0.8"
                 id="use37" />
            </g>
          </g>
          <g
             id="text_14">
            <!-- 8 -->
            <g
               transform="matrix(0.1,0,0,-0.1,58.6375,92.359218)"
               id="g38">
              <use
                 xlink:href="#DejaVuSans-38"
                 id="use38" />
            </g>
          </g>
        </g>
      </g>
      <g
         id="line2d_14">
        <path
           d="m 92.290909,131.76 3.043941,-29.42131 1.582849,-13.128949 1.258162,-8.655405 1.055233,-5.777349 0.892886,-3.708175 0.73055,-2.1751 0.60879,-1.199728 0.48703,-0.550611 0.40586,-0.178384 0.36527,0.05814 0.40586,0.307342 0.44644,0.631745 0.52762,1.13911 0.64937,1.974627 0.77114,3.138909 0.89288,4.654542 1.05524,6.793788 1.25816,9.687448 1.58285,14.09347 2.51632,24.7788 2.80043,26.97653 1.54226,12.81831 1.25816,8.70994 1.05524,5.83012 0.89289,3.75674 0.73054,2.21682 0.60879,1.23545 0.52762,0.61133 0.40586,0.17711 0.36527,-0.0593 0.40586,-0.30862 0.44644,-0.63313 0.5682,-1.24591 0.64938,-2.01553 0.77113,-3.18546 0.89289,-4.70489 1.05523,-6.84711 1.25816,-9.74043 1.58285,-14.14088 2.55691,-25.21084 2.71926,-26.16075 1.54226,-12.815602 1.25816,-8.707075 1.05523,-5.82735 0.89289,-3.754188 0.73055,-2.214626 0.60879,-1.233565 0.52761,-0.609686 0.40586,-0.175828 0.36528,0.06044 0.40585,0.309893 0.44645,0.63453 0.5682,1.247653 0.64938,2.017475 0.77113,3.187677 0.89289,4.70728 1.05523,6.849643 1.25816,9.742939 1.58285,14.14312 2.55691,25.21201 2.71925,26.15855 1.54227,12.8129 1.25816,8.70421 1.05523,5.82458 0.89289,3.75164 0.73055,2.21243 0.60879,1.23168 0.52761,0.60804 0.40586,0.17455 0.36527,-0.0616 0.40586,-0.31117 0.44645,-0.63592 0.5682,-1.2494 0.64937,-2.01942 0.77114,-3.18989 0.89288,-4.70968 1.05524,-6.85217 1.25816,-9.74545 1.58285,-14.14537 2.55691,-25.21317 2.71925,-26.15635 1.54227,-12.810194 1.25816,-8.701347 1.05523,-5.821804 0.89289,-3.749082 0.73055,-2.210238 0.60878,-1.229807 0.52762,-0.606382 0.40586,-0.173272 0.36527,0.06274 0.40586,0.312444 0.44645,0.637315 0.5682,1.251148 0.64937,2.021365 0.77113,3.192103 0.89289,4.712063 1.05524,6.854705 1.25816,9.74796 1.58285,14.147603 2.55691,25.21434 2.71925,26.15415 1.54226,12.80749 1.25817,8.69848 1.05523,5.81903 0.89289,3.74653 0.73054,2.20804 0.60879,1.22793 0.52762,0.60473 0.40586,0.17199 0.36527,-0.0639 0.40586,-0.31372 0.44644,-0.63871 0.56821,-1.25289 0.64937,-2.02331 0.77113,-3.19432 0.89289,-4.71445 1.05523,-6.85724 1.25817,-9.75047 1.58285,-14.14984 2.55691,-25.21551 2.71925,-26.15193 1.54226,-12.804781 1.25817,-8.695617 1.05523,-5.816255 0.89289,-3.743973 0.73054,-2.205849 0.60879,-1.226049 0.52762,-0.603078 0.40586,-0.170716 0.36527,0.06504 0.40586,0.314994 0.44644,0.640101 0.5682,1.254641 0.64938,2.025255 0.77113,3.196528 0.89289,4.716843 1.05523,6.859764 1.25816,9.752979 1.58285,14.152083 2.55691,25.21667 2.71926,26.14972 1.54226,12.80207 1.25816,8.69275 1.05524,5.81348 0.89289,3.74142 0.73054,2.20366 0.60879,1.22417 0.52762,0.60142 0.40585,0.16944 0.36528,-0.0662 0.40586,-0.31627 0.44644,-0.6415 0.5682,-1.25638 0.64938,-2.0272 0.77113,-3.19874 0.89289,-4.71924 1.05523,-6.86229 1.25816,-9.75548 1.58285,-14.15432 2.5975,-25.62438 2.67867,-25.74096 1.54226,-12.799364 1.25816,-8.689882 1.05523,-5.810704 0.89289,-3.738864 0.73055,-2.201458 0.60879,-1.22229 0.52761,-0.599775 0.40586,-0.16816 0.36528,0.06735 0.40585,0.317545 0.48704,0.71649 0.5682,1.293035 0.64937,2.067989 0.77113,3.245115 0.89289,4.769315 1.05524,6.915232 1.25816,9.807919 1.58285,14.200937 2.63808,26.05422 2.63808,25.28782 1.54226,12.74215 1.25817,8.62946 1.05523,5.75229 0.89289,3.68512 0.73054,2.15531 0.60879,1.18279 0.48703,0.53688 0.40586,0.16688 0.36528,-0.0685 0.40585,-0.31882 0.48703,-0.718 0.56821,-1.29478 0.64937,-2.06993 0.77113,-3.24733 0.89289,-4.77169 1.05523,-6.91775 1.25817,-9.8104 1.58285,-14.20313 2.63808,-26.05531 2.63808,-25.28557 1.54226,-12.739416 1.25817,-8.626581 1.05523,-5.749491 0.89289,-3.682559 0.73054,-2.153112 0.60879,-1.180912 0.48703,-0.535358 0.40586,-0.165603 0.36527,0.06965 0.40586,0.320095 0.48703,0.719527 0.56821,1.296523 0.64937,2.071868 0.77113,3.249525 0.89289,4.774073 1.05523,6.920259 1.25816,9.81289 1.58285,14.205342 2.63809,26.0564 2.63808,25.28331 1.54226,12.73667 1.25816,8.62369 1.05524,5.74671 0.89289,3.67999 0.73054,2.15091 0.60879,1.17903 0.48703,0.53384 0.40586,0.16432 0.36527,-0.0708 0.40586,-0.32137 0.48703,-0.72104 0.5682,-1.29827 0.64938,-2.07381 0.77113,-3.25173 0.89289,-4.77645 1.05523,-6.92277 1.25816,-9.81537 1.58285,-14.20755 2.63808,-26.05748 2.63809,-25.28105 1.54226,-12.733931 1.25816,-8.620805 1.01465,-5.550257 0.89289,-3.72864 0.73054,-2.192676 0.60879,-1.214771 0.52762,-0.593167 0.40586,-0.163047 0.36527,0.07195 0.40586,0.322645 0.48703,0.722563 0.5682,1.300009 0.64938,2.075748 0.77113,3.253933 0.89289,4.77883 1.05523,6.925283 1.25816,9.817858 1.58285,14.209745 2.67867,26.46456 2.59749,24.87279 1.54227,12.73119 1.25816,8.61792 1.01465,5.54758 0.89289,3.72608 0.73054,2.19048 0.60879,1.21289 0.52762,0.59151 0.40586,0.16177 0.36527,-0.0731 0.40586,-0.32392 0.48703,-0.72408 0.5682,-1.30175 0.64937,-2.07769 0.77114,-3.25614 0.89288,-4.7812 1.05524,-6.9278 1.25816,-9.82034 1.58285,-14.21194 2.67867,-26.46563 2.59749,-24.87054 1.54227,-12.728442 1.25816,-8.615027 1.01465,-5.544901 0.89288,-3.723525 0.73055,-2.188284 0.60879,-1.211011 0.52762,-0.589862 0.40585,-0.160491 0.36528,0.07425 0.40586,0.325195 0.48703,0.725599 0.5682,1.303496 0.64937,2.079626 0.77113,3.25834 0.89289,4.783585 1.05524,6.930303 1.25816,9.822822 1.58285,14.214147 2.67866,26.46669 2.5975,24.86828 1.54226,12.7257 1.21758,8.3631 1.05523,5.79126 0.89289,3.72097 0.73055,2.18609 0.60879,1.20913 0.52761,0.58821 0.40586,0.15921 0.36527,-0.0754 0.40586,-0.32647 0.48703,-0.72712 0.56821,-1.30524 0.64937,-2.08156 0.77113,-3.26055 0.89289,-4.78596 1.05523,-6.93281 1.25817,-9.8253 1.58285,-14.21634 2.67866,-26.46776 2.5975,-24.86602 1.54226,-12.722958 1.21758,-8.360311 1.05523,-5.788477 0.89289,-3.71841 0.73055,-2.18389 0.60879,-1.20725 0.52761,-0.586558 0.40586,-0.157934 0.36527,0.07655 0.40586,0.327746 0.48703,0.728634 0.5682,1.306982 0.64938,2.083503 0.77113,3.262746 0.89289,4.788338 1.05523,6.935321 1.25816,9.827782 1.58285,14.218526 2.67867,26.46882 2.5975,24.86376 1.54226,12.72021 1.21758,8.35752 1.05523,5.78569 0.89289,3.71586 0.73055,2.18169 0.60878,1.20537 0.52762,0.5849 0.40586,0.15666 0.36527,-0.0777 0.40586,-0.32903 0.48703,-0.73015 0.5682,-1.30872 0.64938,-2.08544 0.77113,-3.26495 0.89289,-4.79072 1.05523,-6.93782 1.25816,-9.83026 1.58285,-14.22073 2.67867,-26.46987 2.5975,-24.86151 1.54226,-12.717449 1.21758,-8.354728 1.05523,-5.782914 0.89289,-3.713293 0.73054,-2.179495 0.60879,-1.20349 0.52762,-0.583252 0.40586,-0.155378 0.36527,0.07886 0.40586,0.330296 0.48703,0.731669 0.5682,1.310467 0.64938,2.087381 0.77113,3.267149 0.89289,4.79309 1.05523,6.940337 1.25816,9.832737 1.58285,14.222923 2.67867,26.47093 2.59749,24.85923 1.54227,12.71471 1.21757,8.35193 1.05524,5.78013 0.89289,3.71074 0.73054,2.1773 0.60879,1.20161 0.52762,0.58159 0.40586,0.15411 0.36527,-0.08 0.40586,-0.33157 0.48703,-0.73319 0.5682,-1.31221 0.64937,-2.08932 0.77114,-3.26935 0.89289,-4.79546 1.05523,-6.94285 1.25816,-9.83521 1.62343,-14.61034 2.11047,-20.79915 v 0"
           clip-path="url(#pae8399d25f)"
           style="fill:none;stroke:#1f77b4;stroke-width:1.5;stroke-linecap:square"
           id="path38" />
      </g>
      <g
         id="line2d_15">
        <path
           d="m 92.290909,261.36 1.461092,-27.11855 0.730545,-9.64672 0.527617,-4.40509 0.365273,-1.61843 0.243515,-0.39774 0.162343,0.0414 0.20293,0.39646 0.284101,1.1912 0.365273,2.58899 0.48703,5.17518 0.649374,9.52034 0.974061,18.06446 1.826367,34.17393 0.68996,8.94866 0.52761,4.34167 0.36528,1.57128 0.24351,0.36561 0.16235,-0.0629 0.20293,-0.42319 0.2841,-1.22793 0.40586,-2.99735 0.52761,-5.91306 0.68996,-10.59904 1.09582,-20.91062 1.50168,-27.98653 0.73054,-9.70846 0.52762,-4.4593 0.40586,-1.76783 0.24351,-0.33347 0.16235,0.0844 0.20293,0.44988 0.2841,1.26461 0.40586,3.04716 0.52761,5.97066 0.68996,10.65697 1.09582,20.94969 1.50168,27.92385 0.73055,9.63641 0.52761,4.39604 0.36527,1.61169 0.24352,0.39315 0.16234,-0.0445 0.20293,-0.40028 0.2841,-1.19645 0.36528,-2.59545 0.48703,-5.18297 0.64937,-9.52865 0.97406,-18.07106 1.82637,-34.16466 0.68996,-8.93876 0.52761,-4.33259 0.36528,-1.56455 0.24351,-0.36102 0.16234,0.066 0.20293,0.427 0.28411,1.23318 0.40585,3.00447 0.52762,5.9213 0.68996,10.60735 1.09582,20.91626 1.50168,27.97765 0.73054,9.69819 0.52762,4.45027 0.40586,1.76035 0.24351,0.32888 0.16235,-0.0875 0.20292,-0.45369 0.28411,-1.26985 0.40585,-3.05426 0.52762,-5.97887 0.68996,-10.66521 1.09582,-20.95519 1.50168,-27.9148 0.73054,-9.62608 0.52762,-4.38699 0.36527,-1.60496 0.24352,-0.38856 0.16234,0.0476 0.20293,0.4041 0.2841,1.2017 0.36527,2.60189 0.48703,5.19076 0.64938,9.53695 0.97406,18.07765 1.82636,34.15535 0.68996,8.92888 0.52762,4.32351 0.36527,1.5578 0.24352,0.35643 0.16234,-0.0691 0.20293,-0.43082 0.2841,-1.23841 0.40586,-3.0116 0.52762,-5.92954 0.68996,-10.61564 1.09582,-20.92188 1.50167,-27.96874 0.73055,-9.68792 0.52762,-4.44124 0.40585,-1.75287 0.24352,-0.32429 0.16234,0.0905 0.20293,0.45751 0.2841,1.27508 0.40586,3.06137 0.52762,5.98706 0.68996,10.67345 1.1364,21.77503 1.4611,27.09137 0.73054,9.61574 0.52762,4.37793 0.36527,1.59823 0.24352,0.38397 0.16234,-0.0507 0.20293,-0.40791 0.2841,-1.20695 0.36527,-2.60835 0.48703,-5.19853 0.64938,-9.54525 0.97406,-18.08422 1.82636,-34.14602 0.68996,-8.91897 0.52762,-4.31443 0.36527,-1.55105 0.24352,-0.35185 0.16234,0.0721 0.20293,0.43463 0.2841,1.24365 0.40586,3.01872 0.52762,5.93777 0.68996,10.62393 1.09581,20.92747 1.50168,27.95982 0.73055,9.67763 0.52761,4.43221 0.40586,1.74538 0.24352,0.3197 0.16234,-0.0936 0.20293,-0.46132 0.2841,-1.28031 0.40586,-3.06847 0.52762,-5.99526 0.68996,-10.68166 1.1364,-21.78051 1.42051,-26.44546 0.73054,-9.81067 0.52762,-4.54933 0.40586,-1.84256 0.24351,-0.37939 0.16235,0.0537 0.20293,0.41174 0.2841,1.21219 0.36527,2.61479 0.48703,5.20631 0.64938,9.55354 0.97406,18.09078 1.82636,34.13665 0.68996,8.90905 0.52762,4.30534 0.36527,1.54432 0.24352,0.34725 0.16234,-0.0752 0.20293,-0.43845 0.2841,-1.24889 0.40586,-3.02583 0.52761,-5.94601 0.68996,-10.6322 1.09582,-20.93305 1.50168,-27.95087 0.73055,-9.66733 0.52761,-4.42318 0.36528,-1.63188 0.24351,-0.40691 0.16234,0.0353 0.20293,0.38882 0.28411,1.1807 0.36527,2.57608 0.48703,5.15959 0.64937,9.50369 0.97406,18.0512 1.82637,34.19239 0.68996,8.96841 0.52761,4.3598 0.36528,1.58476 0.24351,0.3748 0.16235,-0.0568 0.20293,-0.41555 0.2841,-1.21744 0.40586,-2.9831 0.52761,-5.89655 0.68996,-10.58241 1.09582,-20.89929 1.50168,-28.00421 0.73054,-9.72897 0.52762,-4.47734 0.40586,-1.78279 0.24351,-0.34266 0.16235,0.0783 0.20293,0.44226 0.2841,1.25414 0.40586,3.03294 0.52761,5.95423 0.68996,10.64047 1.09582,20.93861 1.50168,27.94189 0.73054,9.65703 0.52762,4.41414 0.36527,1.62515 0.24352,0.40233 0.16234,-0.0384 0.20293,-0.39265 0.2841,-1.18595 0.36528,-2.58254 0.48703,-5.16738 0.64937,-9.51202 0.97406,-18.05784 1.82637,-34.18317 0.68996,-8.95854 0.52761,-4.35074 0.36528,-1.57802 0.24351,-0.37021 0.16234,0.0599 0.20293,0.41937 0.2841,1.22269 0.40586,2.99022 0.52762,5.90481 0.68996,10.59073 1.09582,20.90496 1.50168,27.99538 0.73054,9.71872 0.52762,4.46832 0.40586,1.77532 0.24351,0.33806 0.16235,-0.0813 0.20293,-0.44607 0.2841,-1.25937 0.40586,-3.04006 0.52761,-5.96244 0.68996,-10.64873 1.09582,-20.94416 1.50168,-27.93288 0.73054,-9.64672 0.52762,-4.40509 0.36527,-1.61843 0.24352,-0.39774 0.16234,0.0414 0.20293,0.39646 0.2841,1.1912 0.36527,2.58899 0.48704,5.17518 0.64937,9.52034 0.97406,18.06446 1.82636,34.17393 0.68996,8.94866 0.52762,4.34167 0.36527,1.57128 0.24352,0.36561 0.16234,-0.0629 0.20293,-0.42319 0.2841,-1.22793 0.40586,-2.99735 0.52762,-5.91306 0.68996,-10.59904 1.09582,-20.91062 1.50167,-27.98653 0.73055,-9.70846 0.52762,-4.4593 0.40586,-1.76783 0.24351,-0.33347 0.16234,0.0844 0.20293,0.44988 0.2841,1.26461 0.40586,3.04716 0.52762,5.97066 0.68996,10.65697 1.09582,20.94969 1.50168,27.92385 0.73054,9.63641 0.52762,4.39604 0.36527,1.61169 0.24352,0.39315 0.16234,-0.0445 0.20293,-0.40028 0.2841,-1.19645 0.36527,-2.59545 0.48703,-5.18297 0.64938,-9.52865 0.97406,-18.07106 1.82636,-34.16466 0.68996,-8.93876 0.52762,-4.33259 0.36527,-1.56455 0.24352,-0.36102 0.16234,0.066 0.20293,0.427 0.2841,1.23318 0.40586,3.00447 0.52762,5.9213 0.68996,10.60735 1.09582,20.91626 1.50167,27.97765 0.73055,9.69819 0.52762,4.45027 0.40585,1.76035 0.24352,0.32888 0.16234,-0.0875 0.20293,-0.45369 0.2841,-1.26985 0.40586,-3.05426 0.52762,-5.97887 0.68996,-10.66521 1.09582,-20.95519 1.50168,-27.9148 0.73054,-9.62608 0.52762,-4.38699 0.36527,-1.60496 0.24351,-0.38856 0.16235,0.0476 0.20293,0.4041 0.2841,1.2017 0.36527,2.60189 0.48703,5.19076 0.64938,9.53695 0.97406,18.07765 1.82636,34.15535 0.68996,8.92888 0.52762,4.32351 0.36527,1.5578 0.24352,0.35643 0.16234,-0.0691 0.20293,-0.43082 0.2841,-1.23841 0.40586,-3.0116 0.52762,-5.92954 0.68996,-10.61564 1.09581,-20.92188 1.50168,-27.96874 0.73055,-9.68792 0.52761,-4.44124 0.40586,-1.75287 0.24352,-0.32429 0.16234,0.0905 0.20293,0.45751 0.2841,1.27508 0.40586,3.06137 0.52762,5.98706 0.68996,10.67345 1.1364,21.77503 1.46109,27.09137 0.73055,9.61574 0.52761,4.37793 0.36528,1.59823 0.24351,0.38397 0.16235,-0.0507 0.20293,-0.40791 0.2841,-1.20695 0.36527,-2.60835 0.48703,-5.19853 0.64937,-9.54525 0.97407,-18.08422 1.82636,-34.14602 0.68996,-8.91897 0.52762,-4.31443 0.36527,-1.55105 0.24351,-0.35185 0.16235,0.0721 0.20293,0.43463 0.2841,1.24365 0.40586,3.01872 0.52761,5.93777 0.68996,10.62393 1.09582,20.92747 1.50168,27.95982 0.73055,9.67763 0.52761,4.43221 0.40586,1.74538 0.24352,0.3197 0.16234,-0.0936 0.20293,-0.46132 0.2841,-1.28031 0.40586,-3.06847 0.52761,-5.99526 0.68997,-10.68166 1.1364,-21.78051 1.42051,-26.44546 0.73054,-9.81067 0.52762,-4.54933 0.40586,-1.84256 0.24351,-0.37939 0.16234,0.0537 0.20293,0.41174 0.28411,1.21219 0.36527,2.61479 0.48703,5.20631 0.64937,9.55354 0.97406,18.09078 1.82637,34.13665 0.68996,8.90905 0.52761,4.30534 0.36528,1.54432 0.24351,0.34725 0.16235,-0.0752 0.20293,-0.43845 0.2841,-1.24889 0.40586,-3.02583 0.52761,-5.94601 0.68996,-10.6322 1.09582,-20.93305 1.50168,-27.95087 0.73054,-9.66733 0.52762,-4.42318 0.36527,-1.63188 0.24352,-0.40691 0.16234,0.0353 0.20293,0.38882 0.2841,1.1807 0.36528,2.57608 0.48703,5.15959 0.64937,9.50369 0.97406,18.0512 1.82637,34.19239 0.68996,8.96841 0.52761,4.3598 0.36528,1.58476 0.24351,0.3748 0.16234,-0.0568 0.20293,-0.41555 0.2841,-1.21744 0.40586,-2.9831 0.52762,-5.89655 0.68996,-10.58241 1.09582,-20.89929 1.50167,-28.00421 0.73055,-9.72897 0.52762,-4.47734 0.40586,-1.78279 0.24351,-0.34266 0.16234,0.0783 0.20293,0.44226 0.28411,1.25414 0.40585,3.03294 0.52762,5.95423 0.68996,10.64047 1.09582,20.93861 1.50168,27.94189 0.73054,9.65703 0.52762,4.41414 0.36527,1.62515 0.24352,0.40233 0.16234,-0.0384 0.20293,-0.39265 0.2841,-1.18595 0.36527,-2.58254 0.48704,-5.16738 0.64937,-9.51202 0.97406,-18.05784 1.82636,-34.18317 0.68996,-8.95854 0.52762,-4.35074 0.36527,-1.57802 0.24352,-0.37021 0.16234,0.0599 0.20293,0.41937 0.2841,1.22269 0.40586,2.99022 0.52762,5.90481 0.68996,10.59073 1.09582,20.90496 1.50167,27.99538 0.73055,9.71872 0.52762,4.46832 0.40585,1.77532 0.24352,0.33806 0.16234,-0.0813 0.20293,-0.44607 0.2841,-1.25937 0.40586,-3.04006 0.52762,-5.96244 0.68996,-10.64873 1.09582,-20.94416 1.50168,-27.93288 0.73054,-9.64672 0.52762,-4.40509 0.36527,-1.61843 0.24352,-0.39774 0.16234,0.0414 0.20293,0.39646 0.2841,1.1912 0.36527,2.58899 0.48703,5.17518 0.64938,9.52034 0.97406,18.06446 1.82636,34.17393 0.68996,8.94866 0.52762,4.34167 0.36527,1.57128 0.24352,0.36561 0.16234,-0.0629 0.20293,-0.42319 0.2841,-1.22793 0.40586,-2.99735 0.52762,-5.91306 0.68996,-10.59904 1.09581,-20.91062 1.50168,-27.98653 0.73055,-9.70846 0.52761,-4.4593 0.40586,-1.76783 0.24352,-0.33347 0.16234,0.0844 0.20293,0.44988 0.2841,1.26461 0.40586,3.04716 0.52762,5.97066 0.68996,10.65697 1.09582,20.94969 1.50167,27.92385 0.73055,9.63641 0.52762,4.39604 0.36527,1.61169 0.24351,0.39315 0.16235,-0.0445 0.20293,-0.40028 0.2841,-1.19645 0.36527,-2.59545 0.48703,-5.18297 0.64937,-9.52865 0.97407,-18.07106 1.82636,-34.16466 0.68996,-8.93876 0.52762,-4.33259 0.36527,-1.56455 0.24351,-0.36102 0.16235,0.066 0.20293,0.427 0.2841,1.23318 0.40586,3.00447 0.52761,5.9213 0.68996,10.60735 1.09582,20.91626 1.50168,27.97765 0.73055,9.69819 0.52761,4.45027 0.40586,1.76035 0.24352,0.32888 0.16234,-0.0875 0.20293,-0.45369 0.2841,-1.26985 0.40586,-3.05426 0.52762,-5.97887 0.68996,-10.66521 1.09582,-20.95519 1.50167,-27.9148 0.73055,-9.62608 0.52761,-4.38699 0.36528,-1.60496 0.24351,-0.38856 0.16235,0.0476 0.20292,0.4041 0.28411,1.2017 0.36527,2.60189 0.48703,5.19076 0.64937,9.53695 0.97407,18.07765 1.82636,34.15535 0.68996,8.92888 0.52762,4.32351 0.36527,1.5578 0.24351,0.35643 0.16235,-0.0691 0.20293,-0.43082 0.2841,-1.23841 0.40586,-3.0116 0.52761,-5.92954 0.68996,-10.61564 1.09582,-20.92188 1.50168,-27.96874 0.73055,-9.68792 0.52761,-4.44124 0.40586,-1.75287 0.24352,-0.32429 0.16234,0.0905 0.20293,0.45751 0.2841,1.27508 0.40586,3.06137 0.52761,5.98706 0.68996,10.67345 1.13641,21.77503 1.46109,27.09137 0.73055,9.61574 0.52761,4.37793 0.36528,1.59823 0.24351,0.38397 0.16234,-0.0507 0.20293,-0.40791 0.2841,-1.20695 0.36528,-2.60835 0.48703,-5.19853 0.64937,-9.54525 0.97406,-18.08422 1.82637,-34.14602 0.68996,-8.91897 0.52761,-4.31443 0.36528,-1.55105 0.24351,-0.35185 0.16235,0.0721 0.20292,0.43463 0.28411,1.24365 0.40586,3.01872 0.52761,5.93777 0.68996,10.62393 1.09582,20.92747 1.50168,27.95982 0.73054,9.67763 0.52762,4.43221 0.40586,1.74538 0.24351,0.3197 0.16235,-0.0936 0.20293,-0.46132 0.2841,-1.28031 0.40586,-3.06847 0.52761,-5.99526 0.68996,-10.68166 1.13641,-21.78051 1.4205,-26.44546 0.73055,-9.81067 0.52761,-4.54933 0.40586,-1.84256 0.24352,-0.37939 0.16234,0.0537 0.20293,0.41174 0.2841,1.21219 0.36528,2.61479 0.48703,5.20631 0.64937,9.55354 0.97406,18.09078 1.82637,34.13665 0.68996,8.90905 0.52761,4.30534 0.36527,1.54432 0.24352,0.34725 0.16234,-0.0752 0.20293,-0.43845 0.2841,-1.24889 0.40586,-3.02583 0.52762,-5.94601 0.68996,-10.6322 1.09582,-20.93305 1.50168,-27.95087 0.73054,-9.66733 0.52762,-4.42318 0.36527,-1.63188 0.24352,-0.40691 0.16234,0.0353 0.20293,0.38882 0.2841,1.1807 0.36527,2.57608 0.48703,5.15959 0.64938,9.50369 0.97406,18.0512 1.82636,34.19239 0.68996,8.96841 0.52762,4.3598 0.36527,1.58476 0.24352,0.3748 0.16234,-0.0568 0.20293,-0.41555 0.2841,-1.21744 0.40586,-2.9831 0.52762,-5.89655 0.68996,-10.58241 1.09581,-20.89929 1.50168,-28.00421 0.73055,-9.72897 0.52761,-4.47734 0.40586,-1.78279 0.24352,-0.34266 0.16234,0.0783 0.20293,0.44226 0.2841,1.25414 0.40586,3.03294 0.52762,5.95423 0.68996,10.64047 1.09582,20.93861 1.50167,27.94189 0.73055,9.65703 0.52762,4.41414 0.36527,1.62515 0.24351,0.40233 0.16235,-0.0384 0.20293,-0.39265 0.2841,-1.18595 0.36527,-2.58254 0.48703,-5.16738 0.64938,-9.51202 0.97406,-18.05784 1.82636,-34.18317 0.68996,-8.95854 0.52762,-4.35074 0.36527,-1.57802 0.24352,-0.37021 0.16234,0.0599 0.20293,0.41937 0.2841,1.22269 0.40586,2.99022 0.52761,5.90481 0.68996,10.59073 1.09582,20.90496 1.50168,27.99538 0.73055,9.71872 0.52761,4.46832 0.40586,1.77532 0.24352,0.33806 0.16234,-0.0813 0.20293,-0.44607 0.2841,-1.25937 0.40586,-3.04006 0.52762,-5.96244 0.68996,-10.64873 1.09582,-20.94416 0.0406,-0.81433 v 0"
           clip-path="url(#pae8399d25f)"
           style="fill:none;stroke:#ff7f0e;stroke-width:1.5;stroke-linecap:square"
           id="path39" />
      </g>
      <g
         id="line2d_16">
        <path
           d="m 92.290909,347.76 1.014647,-15.27471 0.487031,-4.54979 0.324687,-1.51005 0.202929,-0.26545 0.121758,0.0962 0.202929,0.58338 0.284101,1.67668 0.405859,3.97383 0.608788,8.60095 1.582849,23.74167 0.446445,3.47304 0.284101,0.95933 0.162343,0.0839 0.162344,-0.2566 0.243515,-1.0131 0.324687,-2.46083 0.487031,-5.72765 0.811717,-12.82295 0.97406,-14.59219 0.48703,-4.54558 0.32469,-1.50678 0.20293,-0.26333 0.12176,0.0975 0.20293,0.58548 0.2841,1.67947 0.40586,3.97727 0.60878,8.60425 1.58285,23.73707 0.44645,3.46892 0.2841,0.9564 0.16234,0.0822 0.16234,-0.25829 0.24352,-1.01558 0.32469,-2.46386 0.48703,-5.73124 0.81172,-12.82528 0.97406,-14.58822 0.48703,-4.54137 0.32468,-1.50351 0.20293,-0.26121 0.12176,0.0988 0.20293,0.58758 0.2841,1.68225 0.40586,3.98069 0.60879,8.60757 1.58285,23.73246 0.44644,3.46479 0.2841,0.95348 0.16235,0.0805 0.16234,-0.26 0.24352,-1.01804 0.32468,-2.46689 0.48703,-5.73484 0.81172,-12.82761 0.97406,-14.58423 0.48703,-4.53716 0.32469,-1.50024 0.20293,-0.25908 0.12176,0.10003 0.20293,0.58967 0.2841,1.68504 0.40586,3.98413 0.60878,8.61086 1.58285,23.72785 0.44645,3.46065 0.2841,0.95057 0.16234,0.0788 0.16235,-0.26169 0.24351,-1.02052 0.32469,-2.46992 0.48703,-5.73842 0.81172,-12.82993 0.97406,-14.58025 0.48703,-4.53294 0.32469,-1.49697 0.20292,-0.25696 0.12176,0.10131 0.20293,0.59177 0.2841,1.68782 0.40586,3.98756 0.60879,8.61416 1.58285,23.72322 0.44644,3.45653 0.2841,0.94764 0.16235,0.0771 0.16234,-0.26339 0.24352,-1.02299 0.32468,-2.47295 0.48703,-5.74201 0.81172,-12.83225 0.97406,-14.57625 0.48703,-4.52872 0.32469,-1.49371 0.20293,-0.25483 0.12176,0.10258 0.20293,0.59388 0.2841,1.6906 0.40586,3.99099 0.60878,8.61745 1.58285,23.71858 0.44645,3.4524 0.2841,0.94472 0.16234,0.0754 0.16235,-0.26508 0.24351,-1.02547 0.32469,-2.47597 0.48703,-5.7456 0.81172,-12.83456 0.97406,-14.57225 0.48703,-4.52451 0.32469,-1.49043 0.20292,-0.25271 0.12176,0.10386 0.20293,0.59597 0.2841,1.69339 0.40586,3.99441 0.60879,8.62075 1.58285,23.71393 0.44644,3.44826 0.2841,0.94181 0.16235,0.0737 0.16234,-0.26678 0.24352,-1.02794 0.32468,-2.479 0.48703,-5.74918 0.81172,-12.83687 0.97406,-14.56824 0.48703,-4.52029 0.32469,-1.48716 0.20293,-0.25059 0.12176,0.10515 0.20293,0.59806 0.2841,1.69617 0.40586,3.99784 0.60878,8.62404 1.58285,23.70927 0.44645,3.44413 0.2841,0.93889 0.16234,0.072 0.16235,-0.26847 0.24351,-1.03041 0.32469,-2.48203 0.48703,-5.75276 0.81172,-12.83917 0.97406,-14.56423 0.48703,-4.51607 0.32469,-1.48389 0.20293,-0.24846 0.12175,0.10642 0.20293,0.60016 0.2841,1.69895 0.40586,4.00127 0.60879,8.62732 1.58285,23.7046 0.44644,3.43999 0.28411,0.93597 0.16234,0.0703 0.16234,-0.27017 0.24352,-1.03288 0.32468,-2.48505 0.48704,-5.75634 0.81171,-12.84147 0.97406,-14.5602 0.48703,-4.51185 0.32469,-1.48062 0.20293,-0.24633 0.12176,0.10769 0.20293,0.60226 0.2841,1.70173 0.40586,4.00469 0.60879,8.6306 1.58284,23.69993 0.44645,3.43585 0.2841,0.93305 0.16234,0.0686 0.16235,-0.27187 0.24351,-1.03535 0.32469,-2.48807 0.48703,-5.75992 0.8523,-13.52142 0.93348,-13.87852 0.48703,-4.50763 0.32469,-1.47734 0.20293,-0.24421 0.12175,0.10897 0.20293,0.60436 0.2841,1.70451 0.40586,4.0081 0.60879,8.63388 1.58285,23.69525 0.44644,3.43171 0.28411,0.93013 0.16234,0.0669 0.16234,-0.27356 0.24352,-1.03782 0.32469,-2.49109 0.48703,-5.76349 0.8523,-13.52369 0.93347,-13.87452 0.48703,-4.50339 0.32469,-1.47407 0.20293,-0.24209 0.12176,0.11025 0.20293,0.60645 0.2841,1.70729 0.40586,4.01152 0.60879,8.63716 1.58285,23.69056 0.44644,3.42757 0.2841,0.9272 0.16234,0.0652 0.16235,-0.27526 0.24351,-1.04029 0.32469,-2.49411 0.48703,-5.76706 0.8523,-13.52594 0.93348,-13.87051 0.48703,-4.49917 0.32469,-1.4708 0.20293,-0.23996 0.12175,0.11153 0.20293,0.60854 0.2841,1.71007 0.40586,4.01494 0.60879,8.64043 1.58285,23.68585 0.44645,3.42343 0.2841,0.92429 0.16234,0.0635 0.16234,-0.27695 0.24352,-1.04277 0.32469,-2.49713 0.48703,-5.77063 0.8523,-13.5282 0.93348,-13.86648 0.48703,-4.49494 0.32468,-1.46752 0.20293,-0.23784 0.12176,0.1128 0.20293,0.61064 0.2841,1.71285 0.40586,4.01836 0.60879,8.64369 1.58285,23.68114 0.44644,3.41929 0.2841,0.92136 0.16235,0.0618 0.16234,-0.27865 0.24351,-1.04523 0.32469,-2.50015 0.48703,-5.7742 0.85231,-13.53044 0.93347,-13.86247 0.48703,-4.49071 0.32469,-1.46424 0.20293,-0.23571 0.12176,0.11408 0.20292,0.61273 0.28411,1.71563 0.40585,4.02177 0.60879,8.64696 1.58285,23.67642 0.44645,3.41514 0.2841,0.91844 0.16234,0.0601 0.16234,-0.28034 0.24352,-1.0477 0.32469,-2.50317 0.48703,-5.77776 0.8523,-13.53269 0.93348,-13.85844 0.48703,-4.48647 0.32468,-1.46097 0.20293,-0.23359 0.12176,0.11536 0.20293,0.61483 0.2841,1.7184 0.40586,4.02519 0.60879,8.65021 1.58285,23.67169 0.44644,3.411 0.2841,0.91552 0.16235,0.0584 0.16234,-0.28204 0.24352,-1.05017 0.32468,-2.50619 0.48703,-5.78132 0.85231,-13.53493 0.93347,-13.8544 0.48703,-4.48224 0.32469,-1.45769 0.20293,-0.23146 0.12176,0.11663 0.20293,0.61692 0.2841,1.72118 0.40586,4.0286 0.60878,8.65347 1.58285,23.66695 0.44645,3.40685 0.2841,0.9126 0.16234,0.0567 0.16235,-0.28373 0.24351,-1.05264 0.32469,-2.5092 0.48703,-5.78489 0.8523,-13.53716 0.93348,-13.85036 0.48703,-4.478 0.32468,-1.45441 0.20293,-0.22934 0.12176,0.11791 0.20293,0.61902 0.2841,1.72396 0.40586,4.032 0.60879,8.65673 1.58285,23.6622 0.44644,3.4027 0.2841,0.90967 0.16235,0.055 0.16234,-0.28543 0.24352,-1.05511 0.32468,-2.51221 0.48703,-5.78844 0.85231,-13.53939 0.93347,-13.84632 0.48703,-4.47376 0.32469,-1.45113 0.20293,-0.22722 0.12176,0.11919 0.20293,0.62111 0.2841,1.72673 0.40586,4.03541 0.60878,8.65998 1.58285,23.65744 0.44645,3.39855 0.2841,0.90675 0.16234,0.0533 0.16235,-0.28713 0.24351,-1.05757 0.36527,-2.91199 0.48703,-5.96682 0.93348,-14.99013 0.8523,-12.28853 0.48703,-4.25527 0.32469,-1.28324 0.20293,-0.11872 0.16234,0.28797 0.24352,1.05881 0.36527,2.91367 0.48703,5.96854 0.93348,14.99103 0.8523,12.28644 0.48703,4.25311 0.32469,1.28157 0.16234,0.13675 0.12176,-0.12111 0.20293,-0.62425 0.2841,-1.73089 0.40586,-4.04052 0.60879,-8.66485 1.58285,-23.65028 0.44644,-3.39233 0.2841,-0.90236 0.16235,-0.0507 0.16234,0.28967 0.24352,1.06127 0.36527,2.91703 0.48703,5.97198 0.93347,14.99286 0.85231,12.28222 0.48703,4.24878 0.32468,1.27827 0.16235,0.13504 0.12176,-0.12237 0.20292,-0.62635 0.28411,-1.73367 0.40585,-4.04392 0.60879,-8.66809 1.58285,-23.6455 0.44645,-3.38817 0.2841,-0.89944 0.16234,-0.049 0.16234,0.29136 0.24352,1.06374 0.36527,2.92038 0.48703,5.97541 0.93348,14.99469 0.8523,12.27801 0.48703,4.24444 0.32469,1.27496 0.16234,0.13334 0.12176,-0.12365 0.20293,-0.62844 0.2841,-1.73644 0.40586,-4.04733 0.60879,-8.67132 1.58285,-23.64071 0.44644,-3.38402 0.2841,-0.89651 0.16235,-0.0473 0.16234,0.29306 0.24352,1.0662 0.36527,2.92374 0.48703,5.97884 0.93347,14.9965 0.85231,12.27379 0.48703,4.24011 0.32468,1.27166 0.16235,0.13163 0.12176,-0.12493 0.20293,-0.63053 0.2841,-1.73921 0.40585,-4.05073 0.60879,-8.67456 1.58285,-23.63591 0.44645,-3.37986 0.2841,-0.89358 0.16234,-0.0456 0.16234,0.29475 0.24352,1.06867 0.36527,2.92709 0.48703,5.98227 0.93348,14.99832 0.8523,12.26955 0.48703,4.23578 0.32469,1.26835 0.16234,0.12993 0.12176,-0.1262 0.20293,-0.63263 0.2841,-1.74198 0.40586,-4.05413 0.60879,-8.67779 1.58285,-23.6311 0.44644,-3.3757 0.2841,-0.89066 0.16235,-0.0439 0.16234,0.29645 0.24352,1.07113 0.36527,2.93045 0.48703,5.98569 0.93348,15.00012 0.8523,12.26532 0.48703,4.23145 0.32469,1.26504 0.16234,0.12823 0.12176,-0.12749 0.20293,-0.63472 0.2841,-1.74475 0.40586,-4.05752 0.60878,-8.68102 1.54227,-23.2104 0.44644,-3.5778 0.32469,-1.09736 0.16234,-0.0422 0.16235,0.29815 0.24351,1.07359 0.36527,2.9338 0.48703,5.98913 0.93348,15.00191 0.8523,12.26109 0.48703,4.2271 0.32469,1.26174 0.16234,0.12652 0.12176,-0.12876 0.20293,-0.63681 0.2841,-1.74752 0.40586,-4.06092 0.60879,-8.68425 1.54226,-23.2059 0.44645,-3.57371 0.32468,-1.09403 0.16235,-0.0405 0.16234,0.29984 0.24352,1.07606 0.36527,2.93715 0.48703,5.99254 0.93348,15.00371 0.8523,12.25685 0.48703,4.22276 0.32469,1.25842 0.16234,0.12483 0.12176,-0.13004 0.20293,-0.6389 0.2841,-1.75029 0.40586,-4.06431 0.60878,-8.68747 1.54227,-23.2014 0.44644,-3.56963 0.32469,-1.09069 0.16234,-0.0388 0.16235,0.30153 0.24351,1.07853 0.36527,2.9405 0.48704,5.99596 0.93347,15.0055 0.8523,12.2526 0.48703,4.21842 0.32469,1.25511 0.16234,0.12313 0.12176,-0.13132 0.20293,-0.64099 0.2841,-1.75306 0.40586,-4.06771 0.60879,-8.69068 1.54226,-23.19689 0.44645,-3.56553 0.32468,-1.08736 0.16235,-0.0371 0.16234,0.30322 0.24352,1.08099 0.36527,2.94385 0.48703,5.99938 0.93348,15.00728 0.8523,12.24834 0.48703,4.21408 0.32469,1.25181 0.16234,0.12141 0.16234,-0.21923 0.24352,-0.95857 0.32469,-2.39392 0.44644,-5.09802 0.73055,-11.28597 1.1364,-17.19122 0.48703,-4.42702 0.32469,-1.41504 0.20293,-0.20383 0.16234,0.22009 0.24352,0.95981 0.32468,2.39544 0.48703,5.64983 0.81172,12.77156 1.01465,15.15479 0.48703,4.42489 0.32469,1.4134 0.20293,0.20277 0.16234,-0.22094 0.24351,-0.96105 0.32469,-2.39697 0.48703,-5.65166 0.81172,-12.77278 1.01465,-15.15271 0.48703,-4.42276 0.32468,-1.41175 0.20293,-0.20171 0.16235,0.22179 0.24351,0.96229 0.32469,2.39849 0.48703,5.65348 0.81172,12.774 1.01464,15.15064 0.48704,4.42062 0.32468,1.41012 0.20293,0.20064 0.16234,-0.22264 0.24352,-0.96353 0.32469,-2.40002 0.48703,-5.6553 0.81171,-12.77522 1.01465,-15.14855 0.48703,-4.4185 0.32469,-1.40847 0.20293,-0.19957 0.16234,0.22348 0.24352,0.96478 0.32468,2.40154 0.48703,5.65712 0.81172,12.77643 1.01465,15.14648 0.48703,4.41636 0.32469,1.40683 0.20293,0.19851 0.16234,-0.22433 0.24351,-0.96602 0.32469,-2.40307 0.48703,-5.65893 0.81172,-12.77766 1.01465,-15.14439 0.48703,-4.41423 0.32469,-1.40518 0.20292,-0.19745 0.16235,0.22518 0.24351,0.96726 0.32469,2.40459 0.48703,5.66075 0.81172,12.77887 1.01465,15.14231 0.48703,4.41209 0.32468,1.40355 0.20293,0.19639 0.16235,-0.22604 0.24351,-0.9685 0.32469,-2.40611 0.48703,-5.66258 0.81172,-12.78008 1.01464,-15.14022 0.48703,-4.40996 0.32469,-1.4019 0.20293,-0.19533 0.16234,0.22689 0.24352,0.96974 0.32468,2.40764 0.48704,5.66439 0.81171,12.78129 1.01465,15.13813 0.48703,4.40783 0.32469,1.40026 0.20293,0.19426 0.16234,-0.22773 0.24352,-0.97098 0.32468,-2.40916 0.48703,-5.66621 0.81172,-12.78251 1.01465,-15.13604 0.48703,-4.4057 0.32469,-1.39861 0.20292,-0.1932 0.16235,0.22858 0.24351,0.97222 0.32469,2.41069 0.48703,5.66803 0.81172,12.78371 1.01465,15.13395 0.48703,4.40357 0.32468,1.39696 0.20293,0.19214 0.16235,-0.22943 0.24351,-0.97346 0.32469,-2.41221 0.48703,-5.66984 0.81172,-12.78493 1.01464,-15.13185 0.48703,-4.40143 0.32469,-1.39533 0.20293,-0.19107 0.16234,0.23028 0.24352,0.9747 0.32469,2.41373 0.48703,5.67166 0.81171,12.78613 1.01465,15.12976 0.48703,4.3993 0.32469,1.39368 0.20293,0.19001 0.16234,-0.23113 0.24352,-0.97594 0.32468,-2.41526 0.48703,-5.67347 0.81172,-12.78734 1.01465,-15.12766 0.48703,-4.39716 0.32469,-1.39204 0.20293,-0.18895 0.16234,0.23198 0.24351,0.97718 0.32469,2.41678 0.48703,5.67529 0.81172,12.78854 1.01465,15.12557 0.48703,4.39503 0.32468,1.39039 0.20293,0.18788 0.16235,-0.23283 0.24351,-0.97842 0.32469,-2.4183 0.48703,-5.6771 0.81172,-12.78975 1.01464,-15.12347 0.48704,-4.39289 0.32468,-1.38874 0.20293,-0.18682 0.16234,0.23367 0.24352,0.97966 0.32469,2.41983 0.48703,5.67891 0.81171,12.79095 1.01465,15.12137 0.48703,4.39075 0.32469,1.38711 0.20293,0.18575 0.16234,-0.23452 0.24352,-0.9809 0.32468,-2.42135 0.48703,-5.68072 0.81172,-12.79216 1.01465,-15.11927 0.48703,-4.38861 0.32469,-1.38546 0.20293,-0.18469 0.16234,0.23538 0.24351,0.98213 0.32469,2.42287 0.48703,5.68254 0.81172,12.79335 1.01465,15.11717 0.48703,4.38647 0.32469,1.38382 0.20292,0.18363 0.16235,-0.23623 0.24351,-0.98338 0.32469,-2.42439 0.48703,-5.68434 0.81172,-12.79456 1.01465,-15.11506 0.48702,-4.38434 0.32469,-1.38217 0.20293,-0.18256 0.16235,0.23707 0.24351,0.98462 0.32469,2.42591 0.48703,5.68616 0.81172,12.79575 1.01464,15.11296 0.48703,4.3822 0.32469,1.38052 0.20293,0.1815 0.16234,-0.23792 0.24352,-0.98586 0.32468,-2.42743 0.48704,-5.68797 0.81171,-12.79694 1.01465,-15.11085 0.48703,-4.38006 0.32469,-1.37888 0.20293,-0.18044 0.16234,0.23877 0.24352,0.9871 0.32468,2.42895 0.48703,5.68978 0.81172,12.79814 1.01465,15.10874 0.48703,4.37792 0.32468,1.37723 0.20293,0.17938 0.16235,-0.23962 0.24351,-0.98834 0.32469,-2.43047 0.48703,-5.69159 0.81172,-12.79933 1.01465,-15.10663 0.48703,-4.37579 0.32468,-1.37558 0.20293,-0.17831 0.16235,0.24047 0.24351,0.98957 0.32469,2.43199 0.48703,5.6934 0.81172,12.80053 1.01464,15.10452 0.48703,4.37364 0.32469,1.37394 0.20293,0.17725 0.16234,-0.24132 0.24352,-0.99082 0.32469,-2.43351 0.48703,-5.6952 0.81171,-12.80172 1.01465,-15.10241 0.48703,-4.3715 0.32469,-1.37229 0.20293,-0.17619 0.16234,0.24217 0.24352,0.99205 0.32468,2.43503 0.48703,5.69702 0.81172,12.80291 1.01465,15.10029 0.48703,4.36936 0.32469,1.37065 0.20293,0.17512 0.16234,-0.24302 0.24351,-0.99329 0.32469,-2.43655 0.48703,-5.69882 0.81172,-12.8041 1.01465,-15.09817 0.48703,-4.36722 0.32468,-1.36901 0.20293,-0.17405 0.16235,0.24386 0.24351,0.99453 0.32469,2.43807 0.48703,5.70063 0.81172,12.80528 1.01464,15.09606 0.48703,4.36508 0.32469,1.36736 0.20293,0.17299 0.16234,-0.24472 0.24352,-0.99577 0.32469,-2.43959 0.48703,-5.70243 0.81171,-12.80647 1.01465,-15.09394 0.48703,-4.36293 0.32469,-1.36571 0.20293,-0.17193 0.16234,0.24556 0.24352,0.99701 0.32468,2.44111 0.48703,5.70423 0.81172,12.80766 1.01465,15.09182 0.48703,4.36079 0.32469,1.36406 0.20293,0.17087 0.16234,-0.24641 0.24351,-0.99825 0.32469,-2.44263 0.48703,-5.70603 0.81172,-12.80885 0.97406,-14.61594 0.48703,-4.5708 0.32469,-1.52638 0.20293,-0.27607 0.12176,0.0898 0.20292,0.57289 0.28411,1.66274 0.40586,3.95663 0.60878,8.58436 1.62344,24.17347 0.44644,3.286 0.2841,0.82767 0.16235,0.007 0.16234,-0.33286 0.24352,-1.12402 0.36527,-3.00227 0.52761,-6.6474 1.21758,-19.60291 0.64938,-8.29546 0.44644,-3.28391 0.2841,-0.8262 0.16234,-0.006 0.16235,0.33369 0.24351,1.12525 0.36528,3.00393 0.52761,6.6492 1.25817,20.21318 0.64937,8.07463 0.40586,2.89044 0.2841,0.82473 0.16234,0.006 0.16235,-0.33454 0.24351,-1.12648 0.36527,-3.00559 0.52762,-6.65099 2.15105,-30.25079 0.32469,-1.51984 0.20293,-0.27183 0.12176,0.0924 0.20293,0.57709 0.2841,1.66831 0.40586,3.96352 0.60878,8.591 1.62344,24.16368 0.44644,3.27763 0.2841,0.8218 0.16235,0.004 0.16234,-0.33623 0.24352,-1.12893 0.36527,-3.00892 0.52762,-6.65457 2.15105,-30.24431 0.32468,-1.51659 0.20293,-0.2697 0.12176,0.0937 0.20293,0.57918 0.2841,1.67111 0.40586,3.96696 0.60879,8.59432 1.62343,24.15876 0.44645,3.27344 0.2841,0.81887 0.16234,0.002 0.16235,-0.33793 0.24351,-1.13139 0.36528,-3.01224 0.52761,-6.65815 2.15105,-30.23782 0.32469,-1.51332 0.20293,-0.26758 0.12176,0.0949 0.20293,0.58128 0.2841,1.67389 0.40586,3.9704 0.60878,8.59763 1.58285,23.74626 0.44645,3.47717 0.2841,0.96224 0.16234,0.0856 0.16235,-0.2549 0.24351,-1.01063 0.32469,-2.4578 0.48703,-5.72405 0.77113,-12.14207 v 0"
           clip-path="url(#pae8399d25f)"
           style="fill:none;stroke:#2ca02c;stroke-width:1.5;stroke-linecap:square"
           id="path40" />
      </g>
      <g
         id="patch_3">
        <path
           d="M 72,384.48 V 51.84"
           style="fill:none;stroke:#000000;stroke-width:0.8;stroke-linecap:square;stroke-linejoin:miter"
           id="path41" />
      </g>
      <g
         id="patch_4">
        <path
           d="M 518.4,384.48 V 51.84"
           style="fill:none;stroke:#000000;stroke-width:0.8;stroke-linecap:square;stroke-linejoin:miter"
           id="path42" />
      </g>
      <g
         id="patch_5">
        <path
           d="M 72,384.48 H 518.4"
           style="fill:none;stroke:#000000;stroke-width:0.8;stroke-linecap:square;stroke-linejoin:miter"
           id="path43" />
      </g>
      <g
         id="patch_6">
        <path
           d="M 72,51.84 H 518.4"
           style="fill:none;stroke:#000000;stroke-width:0.8;stroke-linecap:square;stroke-linejoin:miter"
           id="path44" />
      </g>
      <g
         id="text_15">
        <!-- Sine waves -->
        <g
           transform="matrix(0.12,0,0,-0.12,261.37031,45.84)"
           id="g53">
          <defs
             id="defs44">
            <path
               id="DejaVuSans-53"
               d="m 3425,4513 v -616 q -359,172 -678,256 -319,85 -616,85 -515,0 -795,-200 -280,-200 -280,-569 0,-310 186,-468 186,-157 705,-254 l 381,-78 q 706,-135 1042,-474 336,-339 336,-907 0,-679 -455,-1029 -454,-350 -1332,-350 -331,0 -705,75 -373,75 -773,222 v 650 q 384,-215 753,-325 369,-109 725,-109 540,0 834,212 294,213 294,607 0,343 -211,537 -211,194 -692,291 l -385,75 q -706,140 -1022,440 -315,300 -315,835 0,619 436,975 436,356 1201,356 329,0 669,-60 341,-59 697,-177 z"
               transform="scale(0.015625)" />
            <path
               id="DejaVuSans-6e"
               d="M 3513,2113 V 0 h -575 v 2094 q 0,497 -194,743 -194,247 -581,247 -466,0 -735,-297 -269,-296 -269,-809 V 0 H 581 v 3500 h 578 v -544 q 207,316 486,472 280,156 646,156 603,0 912,-373 310,-373 310,-1098 z"
               transform="scale(0.015625)" />
            <path
               id="DejaVuSans-77"
               d="m 269,3500 h 575 l 719,-2731 715,2731 h 678 l 719,-2731 716,2731 h 575 L 4050,0 H 3372 L 2619,2869 1863,0 h -679 z"
               transform="scale(0.015625)" />
            <path
               id="DejaVuSans-61"
               d="m 2194,1759 q -697,0 -966,-159 -269,-159 -269,-544 0,-306 202,-486 202,-179 548,-179 479,0 768,339 289,339 289,901 v 128 z m 1147,238 V 0 H 2766 V 531 Q 2569,213 2275,61 1981,-91 1556,-91 q -537,0 -855,302 -317,302 -317,808 0,590 395,890 396,300 1180,300 h 807 v 57 q 0,397 -261,614 -261,217 -733,217 -300,0 -585,-72 -284,-72 -546,-216 v 532 q 315,122 612,182 297,61 578,61 760,0 1135,-394 375,-393 375,-1193 z"
               transform="scale(0.015625)" />
            <path
               id="DejaVuSans-76"
               d="M 191,3500 H 800 L 1894,563 2988,3500 h 609 L 2284,0 h -781 z"
               transform="scale(0.015625)" />
          </defs>
          <use
             xlink:href="#DejaVuSans-53"
             id="use44" />
          <use
             xlink:href="#DejaVuSans-69"
             x="63.476562"
             id="use45" />
          <use
             xlink:href="#DejaVuSans-6e"
             x="91.259766"
             id="use46" />
          <use
             xlink:href="#DejaVuSans-65"
             x="154.63867"
             id="use47" />
          <use
             xlink:href="#DejaVuSans-20"
             x="216.16211"
             id="use48" />
          <use
             xlink:href="#DejaVuSans-77"
             x="247.94922"
             id="use49" />
          <use
             xlink:href="#DejaVuSans-61"
             x="329.73633"
             id="use50" />
          <use
             xlink:href="#DejaVuSans-76"
             x="391.01562"
             id="use51" />
          <use
             xlink:href="#DejaVuSans-65"
             x="450.19531"
             id="use52" />
          <use
             xlink:href="#DejaVuSans-73"
             x="511.71875"
             id="use53" />
        </g>
      </g>
      <g
         id="legend_1">
        <g
           id="patch_7">
          <path
             d="M 457.09062,103.87438 H 511.4 q 2,0 2,-2 V 58.84 q 0,-2 -2,-2 h -54.30938 q -2,0 -2,2 v 43.03438 q 0,2 2,2 z"
             style="opacity:0.8;fill:#ffffff;stroke:#cccccc;stroke-linejoin:miter"
             id="path53" />
        </g>
        <g
           id="line2d_17">
          <path
             d="m 459.09062,64.938437 h 10 10"
             style="fill:none;stroke:#1f77b4;stroke-width:1.5;stroke-linecap:square"
             id="path54" />
        </g>
        <g
           id="text_16">
          <!-- 1 Hz -->
          <g
             transform="matrix(0.1,0,0,-0.1,487.09062,68.438437)"
             id="g57">
            <defs
               id="defs54">
              <path
                 id="DejaVuSans-48"
                 d="m 628,4666 h 631 V 2753 h 2294 v 1913 h 631 V 0 H 3553 V 2222 H 1259 V 0 H 628 Z"
                 transform="scale(0.015625)" />
              <path
                 id="DejaVuSans-7a"
                 d="M 353,3500 H 3084 V 2975 L 922,459 H 3084 V 0 H 275 V 525 L 2438,3041 H 353 Z"
                 transform="scale(0.015625)" />
            </defs>
            <use
               xlink:href="#DejaVuSans-31"
               id="use54" />
            <use
               xlink:href="#DejaVuSans-20"
               x="63.623047"
               id="use55" />
            <use
               xlink:href="#DejaVuSans-48"
               x="95.410156"
               id="use56" />
            <use
               xlink:href="#DejaVuSans-7a"
               x="170.60547"
               id="use57" />
          </g>
        </g>
        <g
           id="line2d_18">
          <path
             d="m 459.09062,79.616562 h 10 10"
             style="fill:none;stroke:#ff7f0e;stroke-width:1.5;stroke-linecap:square"
             id="path57" />
        </g>
        <g
           id="text_17">
          <!-- 3 Hz -->
          <g
             transform="matrix(0.1,0,0,-0.1,487.09062,83.116562)"
             id="g61">
            <defs
               id="defs57">
              <path
                 id="DejaVuSans-33"
                 d="m 2597,2516 q 453,-97 707,-404 255,-306 255,-756 0,-690 -475,-1069 -475,-378 -1350,-378 -293,0 -604,58 -311,58 -642,174 v 609 q 262,-153 574,-231 313,-78 654,-78 593,0 904,234 311,234 311,681 0,413 -289,645 -289,233 -804,233 h -544 v 519 h 569 q 465,0 712,186 247,186 247,536 0,359 -255,551 -254,193 -729,193 -260,0 -557,-57 -297,-56 -653,-174 v 562 q 360,100 674,150 314,50 592,50 719,0 1137,-327 419,-326 419,-882 0,-388 -222,-655 -222,-267 -631,-370 z"
                 transform="scale(0.015625)" />
            </defs>
            <use
               xlink:href="#DejaVuSans-33"
               id="use58" />
            <use
               xlink:href="#DejaVuSans-20"
               x="63.623047"
               id="use59" />
            <use
               xlink:href="#DejaVuSans-48"
               x="95.410156"
               id="use60" />
            <use
               xlink:href="#DejaVuSans-7a"
               x="170.60547"
               id="use61" />
          </g>
        </g>
        <g
           id="line2d_19">
          <path
             d="m 459.09062,94.294687 h 10 10"
             style="fill:none;stroke:#2ca02c;stroke-width:1.5;stroke-linecap:square"
             id="path61" />
        </g>
        <g
           id="text_18">
          <!-- 5 Hz -->
          <g
             transform="matrix(0.1,0,0,-0.1,487.09062,97.794687)"
             id="g65">
            <defs
               id="defs61">
              <path
                 id="DejaVuSans-35"
                 d="M 691,4666 H 3169 V 4134 H 1269 V 2991 q 137,47 274,70 138,23 276,23 781,0 1237,-428 457,-428 457,-1159 Q 3513,744 3044,326 2575,-91 1722,-91 1428,-91 1123,-41 819,9 494,109 v 635 q 281,-153 581,-228 300,-75 634,-75 541,0 856,284 316,284 316,772 0,487 -316,771 -315,285 -856,285 -253,0 -505,-56 -251,-56 -513,-175 z"
                 transform="scale(0.015625)" />
            </defs>
            <use
               xlink:href="#DejaVuSans-35"
               id="use62" />
            <use
               xlink:href="#DejaVuSans-20"
               x="63.623047"
               id="use63" />
            <use
               xlink:href="#DejaVuSans-48"
               x="95.410156"
               id="use64" />
            <use
               xlink:href="#DejaVuSans-7a"
               x="170.60547"
               id="use65" />
          </g>
        </g>
      </g>
    </g>
  </g>
  <defs
     id="defs65">
    <clipPath
       id="pae8399d25f">
      <rect
         x="72"
         y="51.84"
         width="446.39999"
         height="332.64001"
         id="rect65" />
    </clipPath>
  </defs>
  <rect
     style="fill:none;fill-opacity:0.59403;stroke:#000000;stroke-width:1.5;stroke-linecap:round;stroke-linejoin:miter;stroke-dasharray:none;stroke-opacity:1"
     id="rect66"
     width="574.01801"
     height="430.05164"
     x="112.991"
     y="34.974182"
     ry="0" />
  <path
     style="font-size:28px;font-family:'DejaVu Sans';-inkscape-font-specification:'DejaVu Sans';text-align:center;text-anchor:middle"
     d="m 359.37402,6.3038806 h 11.73047 v 2.324219 h -8.96875 v 6.0156254 h 8.09375 v 2.324219 h -8.09375 v 9.748047 h -2.76172 z M 373.333,11.403491 h 2.51563 v 15.3125 H 373.333 Z m 0,-5.9609384 h 2.51563 v 3.185547 H 373.333 Z m 17.85547,13.4394534 q 0,-2.734375 -1.13476,-4.238281 -1.1211,-1.503906 -3.15821,-1.503906 -2.02343,0 -3.1582,1.503906 -1.12109,1.503906 -1.12109,4.238281 0,2.720703 1.12109,4.22461 1.13477,1.503906 3.1582,1.503906 2.03711,0 3.15821,-1.503906 1.13476,-1.503907 1.13476,-4.22461 z m 2.51563,5.933594 q 0,3.910156 -1.73633,5.810547 -1.73633,1.914062 -5.31836,1.914062 -1.32617,0 -2.50195,-0.205078 -1.17578,-0.191406 -2.28321,-0.601562 v -2.447266 q 1.10743,0.601563 2.1875,0.888672 1.08008,0.287109 2.20118,0.287109 2.47461,0 3.70507,-1.298828 1.23047,-1.285156 1.23047,-3.896484 v -1.244141 q -0.77929,1.353516 -1.99609,2.023438 -1.2168,0.669922 -2.91211,0.669922 -2.81641,0 -4.53906,-2.146485 -1.72266,-2.146484 -1.72266,-5.6875 0,-3.554687 1.72266,-5.701172 1.72265,-2.146484 4.53906,-2.146484 1.69531,0 2.91211,0.669922 1.2168,0.669922 1.99609,2.023437 v -2.324218 h 2.51563 z m 4.92187,-4.142578 v -9.269531 h 2.51563 v 9.173828 q 0,2.173828 0.84765,3.267578 0.84766,1.080078 2.54297,1.080078 2.03711,0 3.21289,-1.298828 1.18946,-1.298828 1.18946,-3.541016 v -8.68164 h 2.51562 v 15.3125 h -2.51562 v -2.351563 q -0.91602,1.394531 -2.13282,2.078125 -1.20312,0.669922 -2.80273,0.669922 -2.63867,0 -4.00586,-1.640625 -1.36719,-1.640625 -1.36719,-4.798828 z m 6.33008,-9.638672 z m 20.54883,2.720703 q -0.42383,-0.246094 -0.92969,-0.355469 -0.49218,-0.123047 -1.09375,-0.123047 -2.13281,0 -3.28125,1.394532 -1.13476,1.380859 -1.13476,3.978515 v 8.066407 h -2.5293 v -15.3125 h 2.5293 v 2.378906 q 0.79296,-1.394531 2.06445,-2.064453 1.27148,-0.683594 3.08985,-0.683594 0.25977,0 0.57421,0.04102 0.31445,0.02734 0.69727,0.0957 z m 15.1211,4.675781 v 1.230469 h -11.56641 q 0.16407,2.597656 1.5586,3.964844 1.4082,1.353515 3.91015,1.353515 1.44923,0 2.80273,-0.355468 1.3672,-0.355469 2.70704,-1.066407 v 2.378907 q -1.35352,0.574218 -2.7754,0.875 -1.42187,0.300781 -2.88475,0.300781 -3.66407,0 -5.81055,-2.132813 -2.13282,-2.132812 -2.13282,-5.769531 0,-3.759765 2.02344,-5.960937 2.03711,-2.214844 5.48242,-2.214844 3.08985,0 4.88087,1.996094 1.80468,1.982422 1.80468,5.40039 z m -2.51562,-0.738281 q -0.0274,-2.064453 -1.16212,-3.294922 -1.1211,-1.230469 -2.98047,-1.230469 -2.10547,0 -3.37695,1.189454 -1.25782,1.189453 -1.44921,3.349609 z"
     id="text1"
     aria-label="Figure" />
  <path
     style="font-size:28px;font-family:'DejaVu Sans';-inkscape-font-specification:'DejaVu Sans';text-align:center;text-anchor:middle"
     d="m 742.51526,257.80956 -3.74609,10.15821 h 7.50586 z m -1.55859,-2.7207 h 3.13086 l 7.7793,20.41211 h -2.8711 l -1.85937,-5.23633 h -9.20117 l -1.85938,5.23633 h -2.91211 z m 26.50977,5.09961 -5.53711,7.45117 5.82421,7.86133 h -2.96679 l -4.45703,-6.01563 -4.45703,6.01563 h -2.9668 l 5.94726,-8.01172 -5.4414,-7.30078 h 2.96679 l 4.06055,5.45508 4.06055,-5.45508 z m 3.84179,0 h 2.51563 v 15.3125 h -2.51563 z m 0,-5.96094 h 2.51563 v 3.18555 h -2.51563 z m 17.54102,6.41211 v 2.37891 q -1.06641,-0.54688 -2.21485,-0.82031 -1.14843,-0.27344 -2.3789,-0.27344 -1.87305,0 -2.81641,0.57422 -0.92969,0.57422 -0.92969,1.72265 0,0.875 0.66993,1.38086 0.66992,0.49219 2.69336,0.94336 l 0.86132,0.19141 q 2.67969,0.57422 3.80078,1.62695 1.13477,1.03906 1.13477,2.91211 0,2.13281 -1.69531,3.37695 -1.68164,1.24414 -4.63477,1.24414 -1.23047,0 -2.57031,-0.24609 -1.32617,-0.23242 -2.80273,-0.71094 v -2.59765 q 1.39453,0.72461 2.74804,1.09375 1.35352,0.35547 2.67969,0.35547 1.77734,0 2.73437,-0.60157 0.95704,-0.61523 0.95704,-1.72265 0,-1.02539 -0.69727,-1.57227 -0.68359,-0.54687 -3.02148,-1.05273 l -0.875,-0.20508 q -2.33789,-0.49219 -3.37696,-1.50391 -1.03906,-1.02539 -1.03906,-2.80273 0,-2.16016 1.53125,-3.33594 1.53125,-1.17578 4.34766,-1.17578 1.39453,0 2.625,0.20508 1.23047,0.20508 2.26953,0.61523 z"
     id="text1-2"
     aria-label="Axis" />
  <path
     style="font-size:28px;font-family:'DejaVu Sans';-inkscape-font-specification:'DejaVu Sans';text-align:center;text-anchor:middle"
     d="m 13.22957,312.42211 -3.7460943,10.1582 h 7.5058593 z m -1.558594,-2.7207 h 3.130859 l 7.779297,20.41211 h -2.871094 l -1.859375,-5.23633 H 8.6494907 L 6.790116,330.11352 H 3.8780066 Z m 22.654297,7.45117 q -0.423828,-0.24609 -0.929688,-0.35547 -0.492187,-0.12305 -1.09375,-0.12305 -2.132812,0 -3.28125,1.39454 -1.134765,1.38086 -1.134765,3.97851 v 8.06641 h -2.529297 v -15.3125 h 2.529297 v 2.3789 q 0.792968,-1.39453 2.064453,-2.06445 1.271484,-0.68359 3.089843,-0.68359 0.259766,0 0.574219,0.041 0.314453,0.0273 0.697266,0.0957 z m 5.126953,-6.69922 v 4.34766 h 5.18164 v 1.95508 h -5.18164 v 8.3125 q 0,1.87304 0.505859,2.40625 0.519531,0.5332 2.091797,0.5332 h 2.583984 v 2.10547 h -2.583984 q -2.912109,0 -4.019531,-1.08008 -1.107422,-1.09375 -1.107422,-3.96484 v -8.3125 h -1.845703 v -1.95508 h 1.845703 v -4.34766 z m 8.490234,4.34766 h 2.515625 v 15.3125 H 47.94246 Z m 0,-5.96094 h 2.515625 v 3.18555 H 47.94246 Z m 17.541016,6.41211 v 2.37891 q -1.066406,-0.54688 -2.214844,-0.82032 -1.148437,-0.27343 -2.378906,-0.27343 -1.873047,0 -2.816406,0.57421 -0.929688,0.57422 -0.929688,1.72266 0,0.875 0.669922,1.38086 0.669922,0.49219 2.693359,0.94336 l 0.861328,0.19141 q 2.679688,0.57421 3.800782,1.62695 1.134765,1.03906 1.134765,2.91211 0,2.13281 -1.695312,3.37695 -1.681641,1.24414 -4.634766,1.24414 -1.230469,0 -2.570312,-0.24609 -1.326172,-0.23242 -2.802735,-0.71094 v -2.59766 q 1.394532,0.72461 2.748047,1.09375 1.353516,0.35547 2.679688,0.35547 1.777343,0 2.734375,-0.60156 0.957031,-0.61523 0.957031,-1.72266 0,-1.02539 -0.697266,-1.57226 -0.683593,-0.54688 -3.021484,-1.05274 l -0.875,-0.20507 q -2.337891,-0.49219 -3.376953,-1.50391 -1.039063,-1.02539 -1.039063,-2.80273 0,-2.16016 1.53125,-3.33594 1.53125,-1.17578 4.347657,-1.17578 1.394531,0 2.625,0.20508 1.230468,0.20507 2.269531,0.61523 z m 7.314453,-4.79883 v 4.34766 h 5.181641 v 1.95508 h -5.181641 v 8.3125 q 0,1.87304 0.505859,2.40625 0.519532,0.5332 2.091797,0.5332 h 2.583985 v 2.10547 h -2.583985 q -2.912109,0 -4.019531,-1.08008 -1.107422,-1.09375 -1.107422,-3.96484 v -8.3125 h -1.845703 v -1.95508 h 1.845703 v -4.34766 z m 18.251953,4.79883 v 2.37891 q -1.066406,-0.54688 -2.214844,-0.82032 -1.148437,-0.27343 -2.378906,-0.27343 -1.873047,0 -2.816406,0.57421 -0.929688,0.57422 -0.929688,1.72266 0,0.875 0.669922,1.38086 0.669922,0.49219 2.69336,0.94336 l 0.861328,0.19141 q 2.679687,0.57421 3.800781,1.62695 1.134766,1.03906 1.134766,2.91211 0,2.13281 -1.695313,3.37695 -1.681641,1.24414 -4.634766,1.24414 -1.230468,0 -2.570312,-0.24609 -1.326172,-0.23242 -2.802734,-0.71094 v -2.59766 q 1.394531,0.72461 2.748046,1.09375 1.353516,0.35547 2.679688,0.35547 1.777344,0 2.734375,-0.60156 0.957031,-0.61523 0.957031,-1.72266 0,-1.02539 -0.697265,-1.57226 -0.683594,-0.54688 -3.021485,-1.05274 l -0.875,-0.20507 q -2.33789,-0.49219 -3.376953,-1.50391 -1.039062,-1.02539 -1.039062,-2.80273 0,-2.16016 1.53125,-3.33594 1.53125,-1.17578 4.347656,-1.17578 1.394531,0 2.625,0.20508 1.230469,0.20507 2.269531,0.61523 z"
     id="text1-2-2"
     aria-label="Artists" />
  <path
     style="fill:none;fill-opacity:1;stroke:#000000;stroke-width:1.5;stroke-linecap:round;stroke-linejoin:miter;stroke-dasharray:none;stroke-opacity:1;marker-end:url(#ConcaveTriangle-0)"
     d="M 67.447135,294.82931 193.35305,170.44862"
     id="path4-4"
     sodipodi:nodetypes="cc" />
  <path
     style="fill:none;fill-opacity:1;stroke:#000000;stroke-width:1.5;stroke-linecap:round;stroke-linejoin:miter;stroke-dasharray:none;stroke-opacity:1;marker-end:url(#ConcaveTriangle-0-1)"
     d="m 68.130076,295.00546 124.666864,1.0785"
     id="path4-4-0"
     sodipodi:nodetypes="cc" />
  <path
     style="fill:none;fill-opacity:1;stroke:#000000;stroke-width:1.5;stroke-linecap:round;stroke-linejoin:miter;stroke-dasharray:none;stroke-opacity:1;marker-end:url(#ConcaveTriangle-0-1-6)"
     d="m 732.10827,266.26019 -92.31673,-1.0785"
     id="path4-4-0-1"
     sodipodi:nodetypes="cc" />
  <path
     style="fill:none;fill-opacity:1;stroke:#000000;stroke-width:1.5;stroke-linecap:round;stroke-linejoin:miter;stroke-dasharray:none;stroke-opacity:1;marker-end:url(#ConcaveTriangle-0-83)"
     d="M 67.616463,295.07883 193.45608,377.36458"
     id="path4-4-1"
     sodipodi:nodetypes="cc" />
  <text
     xml:space="preserve"
     style="font-style:normal;font-variant:normal;font-weight:normal;font-stretch:normal;font-size:9.99998px;font-family:'DejaVu Sans';-inkscape-font-specification:'DejaVu Sans';text-align:center;text-anchor:middle;fill:none;fill-opacity:1;stroke:#000000;stroke-width:1.5;stroke-linecap:round;stroke-linejoin:miter;stroke-dasharray:1.5, 9;stroke-dashoffset:0;stroke-opacity:1"
     x="8.4852819"
     y="387.93649"
     id="text8"><tspan
       sodipodi:role="line"
       id="tspan8"
       style="stroke-width:1.5"
       x="8.4852819"
       y="387.93649"></tspan></text>
  <text
     xml:space="preserve"
     style="font-style:normal;font-variant:normal;font-weight:normal;font-stretch:normal;font-size:9.99998px;font-family:'DejaVu Sans';-inkscape-font-specification:'DejaVu Sans';text-align:center;text-anchor:middle;fill:none;fill-opacity:1;stroke:#000000;stroke-width:1.5;stroke-linecap:round;stroke-linejoin:miter;stroke-dasharray:none;stroke-dashoffset:0;stroke-opacity:1"
     x="16.440231"
     y="408.61935"
     id="text9"><tspan
       sodipodi:role="line"
       id="tspan9"
       style="stroke-width:1.5;stroke-dasharray:none"
       x="16.440231"
       y="408.61935" /></text>
  <path
     style="font-size:14px;font-family:'DejaVu Sans';-inkscape-font-specification:'DejaVu Sans';text-align:center;text-anchor:middle;stroke-width:1.5"
     d="m 19.92307,334.76382 q -0.916016,1.57226 -1.360352,3.11035 -0.444335,1.53808 -0.444335,3.11719 0,1.5791 0.444335,3.13086 0.451172,1.54492 1.360352,3.11035 h -1.09375 q -1.025391,-1.60645 -1.538086,-3.15821 -0.505859,-1.55175 -0.505859,-3.083 0,-1.52442 0.505859,-3.06934 0.505859,-1.54492 1.538086,-3.1582 z m 2.495117,0.41699 h 1.38086 v 9.04394 h 4.969726 v 1.16211 h -6.350586 z m 7.745117,2.5498 h 1.257813 v 7.65625 h -1.257813 z m 0,-2.98047 h 1.257813 v 1.59278 h -1.257813 z m 10.253907,6.01563 v 4.62109 h -1.257813 v -4.58007 q 0,-1.08692 -0.423828,-1.62696 -0.423828,-0.54004 -1.271484,-0.54004 -1.018555,0 -1.606446,0.64942 -0.58789,0.64941 -0.58789,1.77051 v 4.32714 h -1.264649 v -7.65625 h 1.264649 v 1.18946 q 0.451172,-0.69043 1.05957,-1.03223 0.615234,-0.3418 1.415039,-0.3418 1.319336,0 1.996094,0.82032 0.676758,0.81347 0.676758,2.39941 z m 9.057617,0.47852 v 0.61523 h -5.783203 q 0.08203,1.29883 0.779297,1.98242 0.704101,0.67676 1.955078,0.67676 0.724609,0 1.401367,-0.17773 0.683594,-0.17774 1.353516,-0.53321 v 1.18946 q -0.676758,0.2871 -1.387696,0.4375 -0.710937,0.15039 -1.442383,0.15039 -1.832031,0 -2.905273,-1.06641 -1.066406,-1.06641 -1.066406,-2.88477 0,-1.87988 1.011718,-2.98046 1.018555,-1.10743 2.741211,-1.10743 1.544922,0 2.44043,0.99805 0.902344,0.99121 0.902344,2.7002 z m -1.257813,-0.36915 q -0.01367,-1.03222 -0.581054,-1.64746 -0.560547,-0.61523 -1.490235,-0.61523 -1.052734,0 -1.688476,0.59473 -0.628907,0.59472 -0.72461,1.6748 z m 4.689453,3.34961 h 4.819336 v 1.16211 h -6.480468 v -1.16211 q 0.786132,-0.81347 2.139648,-2.18066 1.360352,-1.37402 1.708984,-1.77051 0.663086,-0.74511 0.922852,-1.25781 0.266602,-0.51953 0.266602,-1.01855 0,-0.81348 -0.574219,-1.32618 -0.567383,-0.51269 -1.483399,-0.51269 -0.649414,0 -1.374023,0.22558 -0.717773,0.22559 -1.538086,0.6836 V 335.673 q 0.833984,-0.33496 1.558594,-0.50586 0.724609,-0.1709 1.326172,-0.1709 1.585937,0 2.529297,0.79297 0.943359,0.79297 0.943359,2.11914 0,0.6289 -0.239258,1.19629 -0.232422,0.56054 -0.854492,1.32617 -0.170899,0.19824 -1.086914,1.14844 -0.916016,0.94336 -2.583985,2.6455 z m 8.975586,-7.90918 v 7.93653 h 1.667969 q 2.112305,0 3.089844,-0.95703 0.984375,-0.95703 0.984375,-3.02149 0,-2.05078 -0.984375,-3.00097 -0.977539,-0.95704 -3.089844,-0.95704 z m -1.380859,-1.13476 h 2.836914 q 2.966797,0 4.354492,1.2373 1.387696,1.23047 1.387696,3.85547 0,2.63867 -1.394532,3.87598 -1.394531,1.2373 -4.347656,1.2373 h -2.836914 z m 10.527344,-0.41699 h 1.09375 q 1.02539,1.61328 1.53125,3.1582 0.512695,1.54492 0.512695,3.06934 0,1.53125 -0.512695,3.083 -0.50586,1.55176 -1.53125,3.15821 h -1.09375 q 0.909179,-1.56543 1.353515,-3.11035 0.451172,-1.55176 0.451172,-3.13086 0,-1.57911 -0.451172,-3.11719 -0.444336,-1.53809 -1.353515,-3.11035 z"
     id="text10"
     aria-label="(Line2D)" />
</svg>
